<svg id="Layer_1" data-name="Layer 1" xmlns="http://www.w3.org/2000/svg" viewBox="0 0 125 83"><defs><style>.cls-1{fill:#fff;}</style></defs><title>Baileys-logo</title><path class="cls-1" d="M71.24024,55.17979a.78752.78752,0,1,0,.80014.78528A.79407.79407,0,0,0,71.24024,55.17979Zm0,1.41333a.6278.6278,0,1,1,.59944-.62264A.60339.60339,0,0,1,71.24024,56.59313Z"/><path class="cls-1" d="M71.41649,55.98951v-.00958a.201.201,0,0,0,.16278-.18708.19838.19838,0,0,0-.07861-.16681.43208.43208,0,0,0-.27139-.0625,2.16924,2.16924,0,0,0-.30111.02444v.78528H71.11v-.31194h.08677c.10042,0,.14917.03806.16278.11944a.64921.64921,0,0,0,.06236.1925h.19264a.59821.59821,0,0,1-.05694-.1925C71.53316,56.07493,71.4951,56.014,71.41649,55.98951Zm-.21431-.05694h-.08681v-.22514a.48662.48662,0,0,1,.10042-.00958c.11667,0,.16819.0475.16819.11944C71.384,55.89868,71.3026,55.93257,71.20219,55.93257Z"/><path class="cls-1" d="M62.49719,27.813c-18.83944-.10444-36.88957,5.9-49.54412,16.08889q6.67307,9.31583,13.27566,18.65361c6.44542-5.34805,19.39833-12.20569,36.26846-12.20569h.00542c16.87014,0,29.82583,6.85764,36.2685,12.20569q6.6039-9.33021,13.27583-18.65361C99.39232,33.713,81.35027,27.70855,62.50261,27.813Zm47.10554,16.33027c-.065.11389-.13014.22653-.1925.34042Q103.90065,52.282,98.45371,60.09382c-.11667-.08681-.22792-.17361-.34181-.26042-6.83861-5.33458-19.82413-11.08139-35.6093-11.08,0-.13153-.00542-.13153-.00542,0-15.785-.00139-28.77052,5.74542-35.60652,11.08-.11389.08681-.23056.17361-.339.26042q-5.56651-7.96729-11.18711-15.92611c.10583-.08014.20889-.15736.31194-.23736C20.21206,40.47438,37.03886,29.19646,62.5,29.4691c25.44753-.24958,42.2878,11.00528,46.7936,14.4368C109.39662,43.98591,109.49968,44.06452,109.60273,44.14327Z"/><path class="cls-1" d="M30.333,44.98688a2.37992,2.37992,0,0,0,.46389-2.714,2.41613,2.41613,0,0,0-3.44778-.82333c-1.18.60361-4.1775,2.38181-4.88278,2.87417-.07875.05014-.08958.04611-.11667.18028-.00819.02722-.019.10444-.03264.194-.01083.07319-.01083.14778.10861.08542,1.03347-.56014,1.511.71208,1.74153,1.10944.18708.31069,3.54542,5.94347,3.71364,6.246a1.40091,1.40091,0,0,1-.16545,1.50014c-.10319.10444-.07333.10583-.076.23056-.00542.08417-.01361,0-.00542.10986.00264.11667.05417.14111.16.07056.87625-.59139,2.94055-1.72792,3.814-2.19458,3.29319-1.75514,3.22-4.14361,2.691-5.44972A2.81633,2.81633,0,0,0,30.333,44.98688Zm.06236-2.59472a2.2919,2.2919,0,0,1-.06778,2.06847,1.161,1.161,0,0,1-.34181.38792c.00819-.02708.10306-.13431.11125-.16278a2.12134,2.12134,0,0,0,.00542-2.05889A1.957,1.957,0,0,0,28.559,41.45368c-.20069-.02306-.09222-.03944-.30111-.01361A2.027,2.027,0,0,1,30.39539,42.39216Zm-3.68917.78806a1.49432,1.49432,0,0,1,2.11319.43819,1.69917,1.69917,0,0,1-.68639,2.30028,2.611,2.611,0,0,1-.53708.26986.38454.38454,0,0,1-.49639-.156c-.07861-.14375-1.275-2.33694-1.275-2.33694A8.96158,8.96158,0,0,1,26.70622,43.18021Zm.10583,3.26611a.50352.50352,0,0,1-.274-.30111c-.06236-.10722-1.18819-2.08736-1.18819-2.08736.08958-.06917.18181-.14111.27684-.20764,0,0,1.20705,2.16472,1.27222,2.27333.11111.18444.18441.22514.27122.25625A.463.463,0,0,1,26.81206,46.44632Zm2.64208,4.93292c-.10306-.01486-.23056-.12611-.34722-.32278-.11667-.20347-1.80125-3.26333-1.80125-3.26333.09222-.05972.179-.12208.26861-.18583,0,0,1.67375,3.03958,1.79847,3.24847a.74931.74931,0,0,0,.43944.38792C29.67667,51.30882,29.58164,51.39965,29.45414,51.37924Zm1.71444-.63875c-.925.50458-1.26958.36347-1.54625-.09764-.1275-.23611-.925-1.68736-1.75514-3.20236a15.11636,15.11636,0,0,1,1.37806-.82194,1.98488,1.98488,0,0,1,2.92694.90611A2.38076,2.38076,0,0,1,31.16858,50.74049Zm2.16472-.609a3.74937,3.74937,0,0,0,.37708-.85583,3.30838,3.30838,0,0,0,.02708-2.55806,2.46955,2.46955,0,0,0-2.04542-1.56389,1.794,1.794,0,0,0-.31736-.02306,3.01576,3.01576,0,0,0-.38514-.01347A2.54458,2.54458,0,0,1,34.063,46.59285,3.39624,3.39624,0,0,1,33.33331,50.13146Z"/><path class="cls-1" d="M53.59691,43.12466c-.04333-.34722-1.01444-7.28625-1.0525-7.61583-.06514-.54125-.03792-1.00917.47472-1.23833.1275-.05431.23875-.05431.2875-.16556a1.46822,1.46822,0,0,0,.06792-.22639c.03792-.10319.00806-.13167-.11125-.11806-.88167.076-3.01653.37708-4.07722.58319a.22177.22177,0,0,0-.1925.14111,1.63932,1.63932,0,0,0-.08958.18708c-.02986.0625-.02167.13847.10306.13167,1.08514-.07194,1.09878.746,1.17458,1.26819.05431.34181,1.18014,7.31194,1.21806,7.63889a1.04271,1.04271,0,0,1-.67,1.29667c-.11667.061-.1275.08-.15736.18028-.01083.04347-.0325.091-.05153.14514-.02167.07194,0,.12208.1275.095.71889-.171,3.09781-.51,3.90892-.57653.08677-.00542.1383-.02847.20344-.141a1.26736,1.26736,0,0,0,.095-.15194c.03528-.06514.02708-.13694-.095-.13153C53.61316,44.47285,53.66205,43.67535,53.59691,43.12466Zm-.4475,1.15014a1.23058,1.23058,0,0,1-.21972-.61306c-.05708-.39472-1.03358-7.32833-1.08236-7.624a1.77169,1.77169,0,0,1,.10851-1.18264,1.84647,1.84647,0,0,1,.38247-.40292s-.27944.33375-.1275,1.53278c.08948.754.98194,7.29972,1.02806,7.6293a1.35371,1.35371,0,0,0,.34722.7975A.74613.74613,0,0,1,53.14941,44.27479Z"/><path class="cls-1" d="M62.21247,33.74285c.13833-.03931.25222-.03389.30653-.13292a.69477.69477,0,0,0,.07042-.17764c.05431-.09361.02444-.12486-.10024-.12208-.925.02444-3.16573.00139-4.21823.10028a.249.249,0,0,0-.20625.12486c-.07861.10986-.05153.07458-.11667.17361-.03792.06236-.03524.13556.08142.13833,1.06608.02444,1.039.864,1.06608,1.38069.019.34181.24958,7.37444.26042,7.696a1.04891,1.04891,0,0,1-.77306,1.18667c-.13292.04486-.13292.06375-.19264.16556a1.21177,1.21177,0,0,0-.06514.156c-.04611.10042-.01625.13833.10306.1275a66.99549,66.99549,0,0,1,7.59278-.03667c.24153.015.3175-.11528.34184-.38792.01635-.21972.16552-2.28139.198-2.62306.01083-.12625-.00264-.13431-.14108-.091a.4305.4305,0,0,0-.15184.06111.55462.55462,0,0,0-.18444.33764,2.386,2.386,0,0,1-1.67917,1.50153,6.27755,6.27755,0,0,1-1.671.076c-1.134-.08-1.19639-.54389-1.20986-1.09458-.00819-.34458-.07056-6.90111-.08139-7.22111A1.19825,1.19825,0,0,1,62.21247,33.74285Zm3.54542,10.15764c.00542-.03125.08684-1.001.08684-1.001.11389-.16278.23056-.32694.34983-.48833,0,0-.08944,1.33472-.10306,1.44181-.0325.259-.09486.42181-.32819.39472-.04889-.00681-.20885-.00278-.25222-.00681A.35541.35541,0,0,0,65.75788,43.90049Zm-4.6143-1.46764a1.37418,1.37418,0,0,0,.24142.83833.78136.78136,0,0,1-.41767-.18722,1.353,1.353,0,0,1-.14111-.64694c-.00819-.39333-.10306-6.684-.11389-6.9893a1.783,1.783,0,0,1,.25222-1.15556,1.85055,1.85055,0,0,1,.43139-.35125s-.32292.29833-.32014,1.50139C61.0758,36.2073,61.13552,42.0966,61.14358,42.43285Z"/><path class="cls-1" d="M76.9883,45.91466c.22792.0475.35-.05431.41514-.32014.04333-.21431.55333-2.60958.59128-2.78319.04344-.17764,0-.17764-.11934-.13028-.04889.019-.13292.03944-.21431.07333-.10306.0475-.11931.10708-.18441.25361a2.05237,2.05237,0,0,1-1.671,1.40792,11.49169,11.49169,0,0,1-2.27056-.26319c-1.10681-.259-1.104-.67819-1.06069-1.23153.01083-.18181.15472-1.70625.33639-3.35958.49642.05958,1.25875.13556,1.57333.18708,1.15292.18861,1.68736.03931,1.69819,1.37667.00267.11944.04333.13167.1275.08681.11931-.06778.09486-.05153.18708-.10986.08681-.061.095-.10847.11125-.24.02986-.23056.23056-1.72931.29306-2.15667.02708-.18708-.07594-.18847-.21167-.11111-.41236.244-.51264.34722-1.70625.19528-.50181-.06111-1.44319-.179-1.95042-.26319.18986-1.66958.36625-3.209.38514-3.38125.57514.08542,1.34819.16139,2.29222.335.87625.15458,2.18375.20069,2.40083,1.33194.02167.11931.06778.10306.11653.065a1.44772,1.44772,0,0,0,.18181-.12069c.03253-.03111.04611-.02847.04069-.17222-.00278-.12611.01083-1.16639,0-1.50417a.32566.32566,0,0,0-.27944-.32958,68.37238,68.37238,0,0,0-7.38653-1.04986.22719.22719,0,0,0-.2225.09222c-.08944.095-.04069.019-.12472.10583-.04347.05431-.05153.13028.06778.14375.8925.14653.6375.9725.59944,1.54083-.02431.34181-.78931,7.33778-.83278,7.70528a1.14011,1.14011,0,0,1-.97653,1.08792.24785.24785,0,0,0-.21153.13833c-.05167.06639.01083.00264-.03806.09625-.05694.09222-.03247.13292.08681.14111A62.59526,62.59526,0,0,1,76.9883,45.91466Zm-.13556-.70264c.00806-.03111.18986-.86667.18986-.86667a1.31106,1.31106,0,0,0,.21972-.21028,3.14708,3.14708,0,0,0,.23056-.33222s-.27667,1.29792-.30372,1.40778c-.07059.25236-.15476.40556-.37712.346-.05153-.015-.21167-.02986-.25778-.04486A.35615.35615,0,0,0,76.85274,45.212Zm-.60764-6.17a1.27242,1.27242,0,0,0,.12472-.05694c.1275-.06514.16819-.08542.14375.07875-.05694.39458-.21431,1.55431-.21431,1.55431a.96482.96482,0,0,0-.07861-.35c-.07316-.16264-.13833-.19667-.13028-.25764C76.12024,39.80438,76.18816,39.468,76.2451,39.042Zm1.51639-4.07847c.13833.03667.25222.10444.255.28625.00264.24139.00806.88431.01083.97375a.49416.49416,0,0,0-.179-.27667c-.06514-.06778-.1383-.13292-.1383-.20611a4.78327,4.78327,0,0,0-.02184-.56972.30522.30522,0,0,0-.16-.26986C77.60955,34.92424,77.68816,34.94327,77.76149,34.96355Zm-5.06736.099c.114.01625.22792.03125.34458.0475-.13566,1.12431-.26583,2.25014-.39875,3.37319-.10583-.01361-.21167-.02708-.32014-.04347C72.44455,37.31549,72.572,36.18827,72.69413,35.06257Zm-.47736,4.44611c.11128.01083.24417.02306.34184.0325-.16559,1.39972-.37712,3.42347-.39073,3.57944a1.22992,1.22992,0,0,0,.11667.71069.77917.77917,0,0,1-.34444-.28347.75691.75691,0,0,1-.09222-.46389C71.85594,42.94827,72.04038,41.1241,72.21677,39.50868Z"/><path class="cls-1" d="M82.72024,38.24188c.12208.47333.9575,4.00111,1.01444,4.3918a2.27614,2.27614,0,0,1-.02972.95208c-.18722.80833-.50191,1.785-.59139,2.05083-.20889.586-.41236.90333-1.00375.93722a.252.252,0,0,0-.22778.10167c-.0625.05694-.22514.236-.29566.32153-.07337.08-.0625.12611.06774.15458.79208.18306,2.94861.88972,3.80587,1.199a.22838.22838,0,0,0,.24149-.04611c.10573-.07333.29833-.22389.39333-.30111.05694-.04208.076-.11264-.03806-.15875-1.09042-.43125-.92222-1.16778-.78125-1.74153.05431-.20472.50458-1.59361.57236-1.84194a1.46765,1.46765,0,0,1,.54267-.82319c1.23149-1.13667,3.57524-3.35014,3.822-3.59569A1.719,1.719,0,0,1,91.824,39.217c.141.00944.141.01625.236-.05556.084-.06653.06774-.05972.14913-.13028.08142-.06639.07056-.10583-.04611-.16-.86528-.3825-2.47125-.93861-3.51552-1.29667a.17871.17871,0,0,0-.22531.02444.64363.64363,0,0,0-.16542.13833c-.05153.05153-.10847.10847.00819.15736,1.12306.46111.58583,1.45389,0,2.04806-.51819.53431-2.52014,2.49694-2.52014,2.49694s-.76764-3.41111-.89792-4.11639c-.09486-.50458.01361-1.26139,1.11764-1.1a.21275.21275,0,0,0,.23333-.08278c.02986-.02583.03792-.04611.133-.14653.05694-.06236.05149-.11389-.06517-.15736-.93583-.30653-3.21722-.91139-4.34833-1.14875a.23462.23462,0,0,0-.23875.05153c-.11944.09361-.14111.099-.20885.15875-.05434.04611-.07323.10847.0433.15722C82.4326,36.4298,82.58191,37.6966,82.72024,38.24188Zm2.55805,9.76694a1.67309,1.67309,0,0,0,.26583-.194c.04611-.04333.141.04069.18444.0625.10306.04736.08944.05014.02708.09347-.05694.0475-.05694.03806-.16278.11667a.24448.24448,0,0,1-.24955.04069c-.05156-.02306-.11111-.04069-.17361-.06375A.37523.37523,0,0,0,85.27829,48.00882Zm.67819-5.06319c.38514-.36222,1.05514-1.039,1.52181-1.47028,1.00361-.91417,1.774-1.78361,1.94222-1.94778a2.01526,2.01526,0,0,1,1.02542-.59125,1.67034,1.67034,0,0,1,1.00361.065,1.856,1.856,0,0,0-1.60583.65917c-.255.24417-2.26514,2.28278-3.49125,3.39361a2.03783,2.03783,0,0,0-.75958.90875c-.065.23875-.71875,2.30444-.77038,2.50653a1.18882,1.18882,0,0,0,.16552.90472.95761.95761,0,0,1-.29569-.26722,1.05316,1.05316,0,0,1-.19264-.84361c.03264-.13431.43681-1.43778.56972-1.90431.06514-.24014.15194-.43944.17361-.52222A1.84939,1.84939,0,0,1,85.95649,42.94563ZM84.48343,37.2273a1.98614,1.98614,0,0,1,.47472-.11389.85136.85136,0,0,0-.51542.98458c.08681.39889,1.02,4.53153,1.02,4.53153-.10309.09778-.2117.19542-.31476.29167,0,0-.98194-4.41222-1.07413-4.85833A.742.742,0,0,1,84.48343,37.2273Z"/><path class="cls-1" d="M92.02732,46.84368c.05431-.14514,0-.20069-.14094-.17361-.22517.04347-.0624.00542-.20892.03125-.11667.02167-.16542.0475-.26319.24278-.13292.26847-1.245,2.42778-1.38889,2.72889-.06236.15056-.01083.19264.10861.19542a1.33546,1.33546,0,0,1,.73514.18306c.73236.34319.95753.85181,1.90153,1.48653,1.79847,1.18681,4.13139,1.13125,5.30878-.19806a2.8705,2.8705,0,0,0,.339-3.59292c-.55069-.75681-1.82833-2.12542-2.2325-2.64625a1.43734,1.43734,0,0,1-.29028-1.61125,1.714,1.714,0,0,1,2.455-.29431c1.09583.68083,2.029,2.01,1.45125,3.25653-.10042.21972-.103.2875.04611.27806.14375-.00542.08142.00806.18181.00264.08139-.00542.14375.02583.23056-.11653.20889-.32958,1.23972-1.89889,1.39972-2.15528.13014-.20611.084-.27944-.16816-.32139a1.27965,1.27965,0,0,1-.68906-.33917,13.578,13.578,0,0,0-1.95847-1.671c-1.66292-1.04569-3.86569-1.19083-5.03208.35528a2.87444,2.87444,0,0,0,.02708,3.4343c.46667.59944,1.72806,1.96125,1.95861,2.23528a1.97317,1.97317,0,0,1,.59139,1.44042,1.4043,1.4043,0,0,1-.27663.72153,2.1605,2.1605,0,0,1-2.92712.08278A2.90284,2.90284,0,0,1,92.02732,46.84368Zm8.48805-1.55028c.20069-.331.38792-.62389.54528-.87625a.91158.91158,0,0,0,.04875-.09486c.04347.00542.08417.01486.13292.02167.24684.03667.15194.08417.02708.29028-.15458.251-.53708.82194-.73778,1.1475-.08958.13694-.19264.26306-.17361.18583A2.87311,2.87311,0,0,1,100.51537,45.29341Zm-4.93444-.82875a2.00328,2.00328,0,0,1-.30375-.74319,1.203,1.203,0,0,1,.15194-.80167,1.07953,1.07953,0,0,1,.88694-.42583,1.80129,1.80129,0,0,1,.67278.10167,1.40653,1.40653,0,0,0-1.29389.53847A1.54521,1.54521,0,0,0,95.58093,44.46466Zm-.50444,7.41653a3.47749,3.47749,0,0,0,2.38708-.81111,2.912,2.912,0,0,0,.88708-2.41028,3.94252,3.94252,0,0,0-.13292-.67806c.02167.03792.05417.07319.07319.10847a2.703,2.703,0,0,1-.48556,3.12764,3.435,3.435,0,0,1-3.74889.5575A4.27472,4.27472,0,0,0,95.07649,51.88118Zm-2.87-1.93556a1.79288,1.79288,0,0,1-.681-.68764,1.91667,1.91667,0,0,1-.21969-1.26278c.07052-.29292.29306-.51944.25774-.36889A3.06483,3.06483,0,0,0,92.20649,49.94563Z"/><path class="cls-1" d="M102.5444,47.01327a1.152,1.152,0,1,0-.40694-1.57611A1.15466,1.15466,0,0,0,102.5444,47.01327Zm-.14917-1.42417a.86045.86045,0,1,1,1.48111.87347.9198.9198,0,0,1-.57514.41917c-.00542-.20764-.01344-.41514-.02431-.624a.41169.41169,0,0,0,.48278-.20472c.16819-.28208-.05153-.49778-.32556-.65917-.1275-.07333-.25222-.15056-.37969-.22389-.23333.39208-.46656.78-.69722,1.17458.095.05833.19.114.2876.171.09222-.15056.17906-.3025.26847-.45444.02448.015.04889.03125.07056.04208v.61167c.09764.05708.19264.11264.29028.16819a.83024.83024,0,0,1-.59681-.09083A.86348.86348,0,0,1,102.39523,45.5891Zm.80028.32139c-.04889-.02569-.09764-.05556-.14385-.08264.04885-.08542.10038-.16681.15191-.25236.04611.02722.095.05569.14115.08417.06774.04208.18441.11792.11389.236C103.388,46.02035,103.26871,45.95257,103.19551,45.91049Z"/><path class="cls-1" d="M46.73664,44.64507c-.21431-.24958-6.32055-7.86264-6.51583-8.08514-.11667-.13153-.17361-.17222-.40153-.10028-.23056.07181-.74875.23181-1.02.34181-.13556.05819-.17361.12472-.17361.32139.00278.3025-.32278,8.07694-.44483,9.80083a2.41656,2.41656,0,0,1-.67545,1.83792.26949.26949,0,0,0-.12486.22778c-.02167.12625-.008.05028-.0325.17361-.00819.08417.02708.12486.10847.08139.65917-.30778,2.626-1.01042,3.16028-1.17722.08958-.02986.10042-.05833.13292-.16681.02444-.07736.00542-.00681.05431-.171.02444-.08681-.01361-.11389-.10847-.09361-1.096.25778-1.25333-.5425-1.25056-1.42958,0-.45292.00264-1.39833.02167-2.15792.81111-.27528,2.11583-.72694,3.06264-1.03083.64556.85861,1.20989,1.63986,1.3075,1.77014a1.936,1.936,0,0,1,.47472,1.18c-.03264.29694-.42056.53972-.61847.655-.10583.05708-.08681.14389-.12486.31069-.02708.12069-.00806.01347-.01625.09222-.00542.08264.03792.09222.12208.06236.82736-.24556,3.10875-.85444,4.41347-1.11764.13569-.02569.14653-.03528.16819-.10444.05972-.14778.05156-.12333.08681-.22111.02986-.065.02986-.13694-.10847-.11931C47.40122,45.60271,47.33886,45.30966,46.73664,44.64507Zm-6.779,3.28375a.85.85,0,0,1-.53444.01083.97345.97345,0,0,1-.50181-1.01458c.00278-.34042.01625-2.02764.03528-2.65708.10042-.04069.20614-.07458.31194-.10847-.02167.57917-.0433,2.29222-.04608,2.64889A1.12624,1.12624,0,0,0,39.95761,47.92882Zm-.689-4.95208c-.10847.03528-.21431.07194-.32278.10986q.11792-2.23792.23875-4.47861c.09489.13292.18708.26861.27667.40292Q39.36773,40.99236,39.26858,42.97674Zm.22514-.065c.05431-1.87042.114-3.76528.114-3.76528s1.14194,1.50694,2.23514,2.95417C41.15664,42.32841,40.11761,42.68785,39.49372,42.91174ZM46.97261,45.642a1.43863,1.43863,0,0,1-.18722-.03389,3.14847,3.14847,0,0,1-.6375-.57514c-.13014-.14375-2.50639-3.125-4.23444-5.26125-1.13389-1.39972-2.086-2.61764-2.16472-2.70583a.41471.41471,0,0,0-.1925-.14375c.06236-.01764.11931-.03667.16806-.05028.23069-.065.29028-.02431.39611.10861.20073.21972,6.25278,7.826,6.45889,8.06875a2.70713,2.70713,0,0,0,.77847.65653A3.45316,3.45316,0,0,1,46.97261,45.642Z"/><path class="cls-1" d="M68.42441,61.15576c.06778-.06514.19809-.18847.22514-.21972a4.99,4.99,0,0,0,1.48111-3.1168,3.00817,3.00817,0,0,0-.40955-1.50556A3.19924,3.19924,0,0,0,66.13222,54.979a6.00785,6.00785,0,0,1-2.44406.23333c-.74875-.12889-.90872.354-.86542.62931a32.90482,32.90482,0,0,1,.27125,3.58486c-.19264-.01222-.43944-.02042-.58861-.02042-.14653,0-.39069.00681-.586.02042a33.67142,33.67142,0,0,1,.274-3.58486c.04333-.27528-.11667-.75819-.86806-.62931a6.02073,6.02073,0,0,1-2.44417-.23333,3.19546,3.19546,0,0,0-3.58611,1.33472,2.97973,2.97973,0,0,0-.40958,1.50556,4.9884,4.9884,0,0,0,1.47833,3.1168c.02986.03125.16.15458.22514.21972a5.81719,5.81719,0,0,0-.97375.93042,3.95546,3.95546,0,0,0-.75694,4.02292c.81653,2.06847,3.14125,2.38042,4.3268,2.28958,1.15556-.08958,1.435-.26722,2.46305-.32972a.55318.55318,0,0,0,.48833-.32,1.68293,1.68293,0,0,0-.04889-.73653,7.37934,7.37934,0,0,1-.07056-.80292c-.03528-.66875-.09222-2.67472-.09486-2.67875.05694.004.38792.01222.58042.01222.19542-.00278.53444-.00819.58875-.01222,0,.004-.05708,2.01-.09222,2.67875h-.00278a6.85442,6.85442,0,0,1-.06778.80292,1.642,1.642,0,0,0-.04889.73653.55224.55224,0,0,0,.48556.32c1.03087.0625,1.31028.24014,2.46319.32972,1.18806.09083,3.51292-.22111,4.32944-2.28958a3.96184,3.96184,0,0,0-.75694-4.02292A5.74048,5.74048,0,0,0,68.42441,61.15576Zm-7.45166,1.25736a8.3978,8.3978,0,0,1-1.33472-.30792,4.99563,4.99563,0,0,1-1.36708-.67278,6.25947,6.25947,0,0,1,1.34278-.60222,9.68921,9.68921,0,0,1,1.313-.30917S60.95372,61.79049,60.97274,62.41312Zm-4.4-5.04833a2.03246,2.03246,0,0,1,1.80392-1.64111c.81111-.05972,2.45774.51264,2.47941,3.82347a13.62413,13.62413,0,0,0-1.63847.36625,9.16436,9.16436,0,0,0-1.785.71611A4.39939,4.39939,0,0,1,56.57275,57.36479Zm4.38917,7.45986a3.5564,3.5564,0,0,1-.73247,2.10375,1.96362,1.96362,0,0,1-1.48656.575c-.19261.004-2.49028-.04472-2.33833-3.04764a3.45424,3.45424,0,0,1,1.02264-2.35736,6.34045,6.34045,0,0,0,1.66292.89931,8.09315,8.09315,0,0,0,1.90708.47472S61.00261,64.03257,60.96191,64.82465Zm2.15653-3.31222c-.00542.20764-.01083.97792-.01083.97792s-.40153.01764-.605.01764c-.18444,0-.594-.01764-.594-.01764s-.00545-.77028-.00823-.97792c-.00542-.19667.00545-1.104.00545-1.104s.30927-.02708.59955-.02708c.35264,0,.60486.02708.60486.02708S63.12111,61.31576,63.11844,61.51243Zm3.52375-5.78875a2.03239,2.03239,0,0,1,1.80125,1.64111,4.42324,4.42324,0,0,1-.86,3.26472,9.14344,9.14344,0,0,0-1.78764-.71611,13.38987,13.38987,0,0,0-1.63847-.36625C64.18177,56.23632,65.82844,55.664,66.64219,55.72368ZM64.08955,60.521a9.68813,9.68813,0,0,1,1.31292.30917,6.2636,6.2636,0,0,1,1.34278.60222,5.04589,5.04589,0,0,1-1.36719.67278,8.17569,8.17569,0,0,1-1.33462.30514C64.06247,61.78507,64.08955,60.521,64.08955,60.521ZM66.2733,67.5034a1.95486,1.95486,0,0,1-1.48653-.575,3.55528,3.55528,0,0,1-.7325-2.10375c-.04069-.79208-.03528-1.35222-.03528-1.35222a9.03351,9.03351,0,0,0,1.99111-.514,6.36869,6.36869,0,0,0,1.57333-.864,3.4618,3.4618,0,0,1,1.02819,2.36139C68.76344,67.45868,66.46594,67.50743,66.2733,67.5034Z"/></svg>