<svg id="Layer_1" data-name="Layer 1" xmlns="http://www.w3.org/2000/svg" viewBox="0 0 125 83"><defs><style>.cls-1{fill:#fff;}</style></defs><title>Buchanans-logo</title><path class="cls-1" d="M88.56855,53.83021v.28347h3.78889V53.8384a1.61715,1.61715,0,0,1-.59473-.56028c-.20819-.4625-4.59528-10.894-4.59528-10.894L84.64187,42.361s-3.94958,10.26875-4.32193,10.91708a1.57194,1.57194,0,0,1-.55543.56028v.27389l3.22.00139v-.28625a.98234.98234,0,0,1-.409-1.11486c.04957-.10444.47957-1.38208.936-2.41833l4.25278-.004s1.03083,2.44278,1.08236,2.61764A.80175.80175,0,0,1,88.56855,53.83021Zm-4.64543-4.90458,1.68111-4.484,1.67167,4.484Z"/><path class="cls-1" d="M52.87382,53.87354a1.23416,1.23416,0,0,1-.68222-.97653V43.7391a1.11305,1.11305,0,0,1,.54861-.89653v-.27264h-3.5868v.28472a1.18385,1.18385,0,0,1,.54389.97389v3.54278H44.62188V43.7391A1.20475,1.20475,0,0,1,45.123,42.848v-.274H41.67452v.274a1.30422,1.30422,0,0,1,.55278,1.03208V52.897a1.38623,1.38623,0,0,1-.50125.94139v.27528H45.2023v-.28347a1.426,1.426,0,0,1-.58042-.93319V48.73174h5.07542V52.897a1.24308,1.24308,0,0,1-.57375.93042v.28625h3.75028Z"/><path class="cls-1" d="M78.381,44.09716a1.38049,1.38049,0,0,1,.73513-1.2425V42.574H76.05159v.2875a1.28913,1.28913,0,0,1,.58042,1.21528l-.02778,7.05569L71.514,42.574H67.99757v.274a1.7719,1.7719,0,0,1,.27806.23458c.40556.47069.34458.69444.34458,1.48653V52.638a1.39607,1.39607,0,0,1-.57167,1.19222v.28347h3.19139V53.8384a1.52432,1.52432,0,0,1-.87611-1.26417l.02431-6.97833c0,.10986,5.08972,8.47986,5.08972,8.47986H78.381Z"/><path class="cls-1" d="M107.80478,42.35966c.08069-.05153.10236.15194.10236.29708a1.25208,1.25208,0,0,1-.90194,1.20306c-.22375.02847-.14514.15194-.04542.12069A2.06052,2.06052,0,0,0,108.7677,41.889a1.36121,1.36121,0,0,0-1.321-1.47833,1.069,1.069,0,0,0-1.07625.986.9344.9344,0,0,0,.84764.96306A1.0963,1.0963,0,0,0,107.80478,42.35966Z"/><path class="cls-1" d="M104.11548,44.24771a1.50682,1.50682,0,0,1,.66056-1.39306V42.574h-3.03208v.28069a1.53614,1.53614,0,0,1,.61653,1.39306l-.01832,6.88472L97.25451,42.574H93.72659v.28069a1.489,1.489,0,0,1,.234.19264c.40347.47875.40083.72972.40083,1.52181V52.638a1.4493,1.4493,0,0,1-.65375,1.18944v.28625h3.07417v-.28625a1.35811,1.35811,0,0,1-.68708-1.25319l.03333-6.97833c0,.10986,5.08417,8.47986,5.08417,8.47986h2.90319Z"/><path class="cls-1" d="M15.39619,50.42035c0-3.03958-4.31042-3.39625-4.31042-3.39625s3.36236-.42042,3.36236-2.85778c0-2.52556-2.965-3.05986-4.31653-3.05986H3.40272v.29014a1.36074,1.36074,0,0,1,.59417,1.02958V52.70174a1.40627,1.40627,0,0,1-.66944,1.0525v.27944h6.737C13.91772,54.03368,15.39619,51.93952,15.39619,50.42035ZM6.82008,42.37327s1.30682-.03667,1.711-.03667c2.28346,0,2.8375,1.01722,2.8375,2.101,0,2.19042-2.63194,2.09014-3.79028,2.09014h-.7582Zm0,10.23486V48.01827h1.711c2.00471,0,3.66207.46667,3.66207,2.25833,0,1.32917-.7968,2.36958-3.08222,2.36958C8.82953,52.64618,6.82008,52.60813,6.82008,52.60813Z"/><path class="cls-1" d="M113.20978,54.43785c2.84153,0,4.96139-1.686,4.96139-3.8018,0-2.46722-2.45014-3.19694-3.93805-3.6743-1.85485-.59819-2.74929-.90472-2.74929-1.93556,0-.73375.67277-1.5625,1.99929-1.5625a4.13911,4.13911,0,0,1,3.24292,1.59917h.43264l-.03931-2.58792-.33431.02306c-.40694.51-2.061-.32958-3.34944-.32958-1.75722,0-4.36611,1.04444-4.36611,3.59292,0,1.23431.71208,2.09014,2.13972,2.76153,1.72931.80431,4.69959.85722,4.72264,2.7818.00958.83014-.80833,1.87042-2.60819,1.87042a5.0771,5.0771,0,0,1-3.83028-1.81889h-.44556l.01556,2.84694.32889-.00542C109.68256,53.46813,111.22811,54.43785,113.20978,54.43785Z"/><path class="cls-1" d="M27.37674,50.354l.01292-6.49417a1.33774,1.33774,0,0,1,.71611-1.01181v-.274H24.86883v.274a1.507,1.507,0,0,1,.61708.98736l.03806,6.55389c.01417,1.77944-.54181,2.79805-2.62042,2.79805a2.54578,2.54578,0,0,1-2.8768-2.82792v-.11125l.02306.12889.01417-6.17.00417-.40556a1.14512,1.14512,0,0,1,.63875-.95889v-.25917H20.079V42.574H16.91119v.28069a1.23649,1.23649,0,0,1,.56764.91292v6.69208c0,3.494,2.83279,4.03653,5.01375,4.03653C25.74773,54.49618,27.35369,53.37577,27.37674,50.354Z"/><path class="cls-1" d="M39.58106,53.0991s.01152-1.20569.01554-2.11583h-.47a4.411,4.411,0,0,1-3.483,2.17694c-2.9107,0-3.30876-2.80083-3.30876-4.99139,0-2.74792,1.09181-4.636,3.17861-4.61555A4.23349,4.23349,0,0,1,38.86424,45.349h.47264c.01431-1.0525.02236-2.81972.02236-2.81972-.00806.00944-.34181,0-.34181,0-.40278.26042-.95208.17222-1.77819-.03125a7.28749,7.28749,0,0,0-1.68444-.28486h-.01833a6.33463,6.33463,0,0,0-6.12667,6.15917,5.82191,5.82191,0,0,0,5.96528,6.00319A6.83542,6.83542,0,0,0,39.58106,53.0991Z"/><path class="cls-1" d="M62.76424,53.88715v.22653h3.92111V53.8384a1.51177,1.51177,0,0,1-.67-.69319c-.22111-.44347-4.57972-10.76111-4.57972-10.76111L58.90883,42.361s-3.94626,10.26875-4.31445,10.91708a1.77691,1.77691,0,0,1-.75417.61181v.22375h3.479v-.22375a1.02311,1.02311,0,0,1-.47819-1.17736c.05153-.10444.47819-1.38208.93319-2.41833h4.27861c.46111,1.03889,1.01444,2.43875,1.06056,2.61361A.80448.80448,0,0,1,62.76424,53.88715Zm-4.575-4.96153,1.67778-4.484,1.68056,4.484Z"/><path class="cls-1" d="M14.73841,48.08882a3.093,3.093,0,0,1,1.10472,2.37764c0,1.61681-1.54014,4.01347-5.78958,4.01347H3.36883l.35807.28611,6.45013.015c4.24736,0,5.959-2.36417,5.959-3.9768A3.21679,3.21679,0,0,0,14.73841,48.08882Z"/><path class="cls-1" d="M27.79036,43.91813l-.02569,6.47653c-.01153,3.11278-1.64667,4.49486-5.29319,4.49486a6.45413,6.45413,0,0,1-3.85805-.98472,6.05076,6.05076,0,0,0,4.1857,1.24653c3.6336,0,5.26791-1.38764,5.291-4.50583l.02917-6.54833a.8061.8061,0,0,1,.489-.72569l-.21361-.21972A.98773.98773,0,0,0,27.79036,43.91813Z"/><polygon class="cls-1" points="53.672 54.519 49.264 54.519 49.747 54.774 53.961 54.774 58.017 54.774 57.5 54.519 53.672 54.519"/><polygon class="cls-1" points="41.777 54.519 42.14 54.774 45.908 54.774 45.589 54.519 41.777 54.519"/><path class="cls-1" d="M7.267,48.474v3.77889c.10167.00542.23264.00542.35736.00542v-3.5075c.49444,0,1.24778-.00681,1.24778-.00681a4.86118,4.86118,0,0,1,2.47333.47333c-.40486-.43944-1.22069-.75-2.83333-.75C8.51217,48.46729,7.76064,48.474,7.267,48.474Z"/><path class="cls-1" d="M35.81313,44.21785a3.81481,3.81481,0,0,1,2.09154.70125,3.8905,3.8905,0,0,0-2.42182-.96306H35.453a2.22348,2.22348,0,0,0-1.49264.53042,4.90564,4.90564,0,0,0-1.2275,3.72708c0,2.21361.451,3.59569,1.41,4.23042-.73722-.71333-1.09736-2.029-1.09736-3.97a4.89956,4.89956,0,0,1,1.23764-3.73125A2.22346,2.22346,0,0,1,35.81313,44.21785Z"/><path class="cls-1" d="M39.977,53.144v.16681l-.15181.11389a7.28973,7.28973,0,0,1-4.46583,1.34958,6.4277,6.4277,0,0,1-3.9625-1.29528c.004.00944.01431.01222.01833.01486a6.42867,6.42867,0,0,0,4.26708,1.53681,7.22782,7.22782,0,0,0,4.4575-1.35375l.15944-.10028v-.17778l.01417-2.02083-.32139-.40417Z"/><polygon class="cls-1" points="117.891 45.596 117.822 42.887 117.51 42.583 117.571 45.338 117.891 45.596"/><path class="cls-1" d="M92.59812,53.53049c.06111.04069.09708.01222.09708.01222L88.23548,43.04049l-.64486-.51542s4.31917,10.16041,4.46305,10.471A1.07759,1.07759,0,0,0,92.59812,53.53049Z"/><polygon class="cls-1" points="76.18 49.053 72.703 43.168 72.031 42.742 76.18 49.701 76.18 49.053"/><path class="cls-1" d="M66.83451,53.53049a.0986.0986,0,0,0,.10583.01222L62.474,43.04049l-.55611-.46653s4.345,10.24166,4.46569,10.47764A1.0675,1.0675,0,0,0,66.83451,53.53049Z"/><polygon class="cls-1" points="101.911 49.053 98.439 43.168 97.773 42.742 101.906 49.701 101.911 49.053"/><path class="cls-1" d="M52.58757,43.781V52.9309a.8895.8895,0,0,0,.50861.689.63524.63524,0,0,1-.18778-.43125V44.036a.68018.68018,0,0,1,.32889-.68222l-.23875-.23319A.79711.79711,0,0,0,52.58757,43.781Z"/><path class="cls-1" d="M58.43479,50.6984H58.0584c-.14444.36222-.73917,1.89347-.73917,1.89347l-.10653.29569a.32763.32763,0,0,0-.03792.164c0,.28486.31264.56833.56347.72708a.72248.72248,0,0,1-.24278-.4775.55236.55236,0,0,1,.03458-.16278l.10515-.28889s.605-1.52847.74124-1.89208h3.49125c-.036-.07861-.06917-.179-.11194-.259Z"/><path class="cls-1" d="M20.42619,50.40549a2.25967,2.25967,0,0,0,.91958,2.08875,2.51729,2.51729,0,0,1-.59958-1.83792l.01222-6.54972a.82534.82534,0,0,1,.43208-.75278l-.22722-.22375a.9378.9378,0,0,0-.52153.76083Z"/><path class="cls-1" d="M7.62439,43.09618c.47875-.01361,1.24778-.04069,1.24778-.04069a3.37187,3.37187,0,0,1,1.66361.32958,2.59493,2.59493,0,0,0-2.02361-.609s-.75694.015-1.24514.02708v3.36375c.099,0,.26236,0,.35736.00681Z"/><path class="cls-1" d="M45.01452,47.04716h.31528V44.036a.674.674,0,0,1,.289-.655L45.3916,43.168a.73944.73944,0,0,0-.37708.61306Z"/><path class="cls-1" d="M12.74522,47.00243c.17764.05958.27334.10028.45444.16542a3.21666,3.21666,0,0,0,2.01819-2.80347,2.64428,2.64428,0,0,0-1.29736-2.34792,2.84571,2.84571,0,0,1,.96708,2.19056A3.111,3.111,0,0,1,12.74522,47.00243Z"/><polygon class="cls-1" points="40.075 42.828 39.763 42.574 39.754 45.475 40.103 45.752 40.075 42.828"/><path class="cls-1" d="M49.264,49.39632V49.1359H45.01452v3.795a1.16516,1.16516,0,0,0,.60431.77583.91821.91821,0,0,1-.289-.51806V49.39632Z"/><path class="cls-1" d="M108.65117,40.59646a1.84639,1.84639,0,0,1,.50514,1.33458,2.41183,2.41183,0,0,1-2.185,2.451.57916.57916,0,0,1-.18987-.02306.58245.58245,0,0,0,.08875.141.5013.5013,0,0,0,.41918.13431,2.41139,2.41139,0,0,0,2.18568-2.44958A1.77637,1.77637,0,0,0,108.65117,40.59646Z"/><path class="cls-1" d="M107.41478,43.0066a1.42039,1.42039,0,0,0,.05014-.21556c-.13347-.00819-.23665-.02444-.37764-.04486a1.33923,1.33923,0,0,1-.50125-.17625,1.355,1.355,0,0,0,.82875.42986Z"/><path class="cls-1" d="M104.5095,44.05646V54.484H101.348l.55542.259h2.93167l-.01014-10.559a.7544.7544,0,0,1,.48208-.784l-.22917-.22375A.94575.94575,0,0,0,104.5095,44.05646Z"/><path class="cls-1" d="M96.51256,47.14757c-.00333,2.05208-.01624,5.47-.01624,5.47a1.17106,1.17106,0,0,0,.62249.92514.9467.9467,0,0,1-.30111-.67556s.00278-3.12361.01833-5.18653C96.7127,47.484,96.60478,47.30216,96.51256,47.14757Z"/><path class="cls-1" d="M113.79436,44.12021a3.504,3.504,0,0,1,2.10028.69306,3.59537,3.59537,0,0,0-2.42305-.944c-1.16514,0-1.59306.71208-1.59306,1.19361a.91559.91559,0,0,0,.53307.85042.81629.81629,0,0,1-.21362-.59944C112.198,44.82952,112.61631,44.12021,113.79436,44.12021Z"/><path class="cls-1" d="M117.41645,48.13493a3.23054,3.23054,0,0,1,1.14806,2.54042c0,2.34111-2.35931,4.16264-5.37167,4.16264a8.49771,8.49771,0,0,1-2.10986-.31875,2.603,2.603,0,0,0-1.551-.13569l.215.22514a3.6313,3.6313,0,0,1,1.68736.255,6.49633,6.49633,0,0,0,1.83444.23611c3.00764,0,5.5568-1.90847,5.5568-4.2468A3.121,3.121,0,0,0,117.41645,48.13493Z"/><polygon class="cls-1" points="93.411 54.519 88.035 54.519 88.697 54.774 93.765 54.774 97.837 54.774 97.319 54.519 93.411 54.519"/><path class="cls-1" d="M115.14589,50.50577a5.71012,5.71012,0,0,0-2.35667-1.02264,11.42271,11.42271,0,0,1-1.79429-.60625,6.32833,6.32833,0,0,1-.97737-.5575,6.19232,6.19232,0,0,0,1.315.94264,12.99093,12.99093,0,0,0,1.79583.609A8.795,8.795,0,0,1,115.14589,50.50577Z"/><polygon class="cls-1" points="67.658 54.519 62.895 54.519 63.555 54.774 68.03 54.774 72.201 54.774 71.677 54.519 67.658 54.519"/><path class="cls-1" d="M70.78632,47.14757c-.00819,2.05208-.02653,5.47-.02653,5.47a1.15508,1.15508,0,0,0,.626.92514.938.938,0,0,1-.30653-.67556s.01556-3.12361.01833-5.18653C70.9809,47.484,70.87646,47.30216,70.78632,47.14757Z"/><path class="cls-1" d="M79.62827,43.37424l-.24418-.24014a.98078.98078,0,0,0-.60222.93181V54.484H75.62159l.546.259h2.93305V44.2491A.87284.87284,0,0,1,79.62827,43.37424Z"/><path class="cls-1" d="M84.92534,48.60965c.2075-.58181.57111-1.54764.89111-2.40889-.06986-.18444-.14513-.37431-.20333-.54931-.394,1.06333-.89792,2.39667-1.10819,2.95819Z"/><polygon class="cls-1" points="79.278 54.519 79.73 54.774 84.334 54.774 83.813 54.519 79.278 54.519"/><path class="cls-1" d="M83.81729,50.6984l-.73653,1.89347-.11389.29569a.39763.39763,0,0,0-.02653.164c0,.28486.31.56833.55681.72708a.7736.7736,0,0,1-.274-.47208.35532.35532,0,0,1,.03125-.17486l.10723-.28625.72222-1.86222,3.44915.01083-.11875-.29569Z"/><path class="cls-1" d="M58.74132,48.60965h.40889c.2239-.58181.58931-1.54764.90611-2.40889-.06722-.18444-.14319-.37431-.20417-.54931C59.44868,46.71479,58.95021,48.04813,58.74132,48.60965Z"/><path class="cls-1" d="M120.47158,43.37424c.36208,0,.55472-.14111.55472-.33375,0-.18583-.17361-.33222-.52292-.33222h-.87347v.02028c.07944.02306.12556.0475.12556.15472V43.781c0,.099-.04611.12625-.12556.15056v.01764h.47V43.9316c-.0786-.02431-.12-.05153-.12-.15056v-.90875c0-.06236.03528-.06917.09625-.06917h.39208c.19931,0,.29153.12486.29153.23736a.262.262,0,0,1-.29153.24417h-.38056v.01764l.72028.64694h.35736V43.9316a.55712.55712,0,0,1-.20611-.13014Z"/><path class="cls-1" d="M120.31825,42.28507c-.91208,0-1.35694.53708-1.35694,1.07556,0,.53986.44486,1.07694,1.35694,1.07694.89792,0,1.35431-.53708,1.35431-1.07694C121.67256,42.82216,121.21617,42.28507,120.31825,42.28507Zm0,1.98708c-.78125,0-1.16708-.46667-1.16708-.91153,0-.45431.38583-.91014,1.16708-.91014.77458,0,1.16917.45583,1.16917.91014C121.48742,43.80549,121.09283,44.27216,120.31825,44.27216Z"/></svg>