<svg id="Layer_1" data-name="Layer 1" xmlns="http://www.w3.org/2000/svg" viewBox="0 0 125 83"><defs><style>.cls-1{fill:#fff;}</style></defs><title>Captain-Morgan-logo</title><path class="cls-1" d="M102.62312,49.95785V42.2173c0-2.73986-1.37528-3.49805-3.04636-3.63778-1.52989-.12875-2.72628.6525-2.72628,1.66153,0,.65236.56431,1.29125.23878,1.88125A1.32264,1.32264,0,0,0,98.09562,41.006c.10861-.60764.20892-1.58958,1.13125-1.511,1.10406.08958,1.38069,1.15556,1.38069,2.56486l-.00264-.07875c0,1.57208-1.67653,2.52556-3.24444,2.48083a6.87233,6.87233,0,0,0-1.02806,4.00792c0,1.45125.40961,3.59833,1.85545,4.24667H98.234a11.37462,11.37462,0,0,0,2.52555-1.44847,3.30377,3.30377,0,0,0,1.53,1.72653c.74861-.47194,1.60319-1.15014,1.63031-1.13111C102.78048,51.49049,102.62312,49.95785,102.62312,49.95785Zm-2.01556-2.41972v2.40208c0,.68639-.415,1.28986-1.0308,1.23833-.78128-.06639-1.1285-1.57736-1.1285-3.28639A6.42856,6.42856,0,0,1,98.839,45.539c.44486-.89111,1.25319-1.12181,1.76861-1.95861Z"/><path class="cls-1" d="M80.79423,37.91091l-.02441-.02167v.01083l-.727-.38792c-2.6775.81917-3.70014,2.24611-4.03917,4.95736l-.03525.28083a2.10768,2.10768,0,0,1-.822,1.71708,2.45477,2.45477,0,0,1,.75958,1.9775c.24681,4.18708,1.48375,4.72819,2.71805,5.13236,3.13861-.87611,3.73805-3.57792,3.73805-7.5643C82.36215,40.74563,81.86034,38.63521,80.79423,37.91091ZM79.22354,50.26715c-.499-.01361-1.31292-.71625-1.31292-6.69222,0-2.88625.43142-4.14222.97653-4.66847.91153.10028,1.39444,1.64931,1.39444,4.91125C80.28159,48.31938,79.92618,50.286,79.22354,50.26715Z"/><path class="cls-1" d="M111.42839,47.07841a1.94371,1.94371,0,0,1-.746-1.74028V42.74479a4.253,4.253,0,0,0-.43944-2.20125A2.24539,2.24539,0,0,0,108.241,39.449a6.24452,6.24452,0,0,1-1.46486,1.06069,3.43605,3.43605,0,0,0-.48014-1.14472l-.21153-.07875c-.17639.04611-1.21806.40556-1.61681.52361l-.04875.21694a5.48408,5.48408,0,0,1,.45833,1.21389V50.6509a3.02375,3.02375,0,0,1-.52889,2.04681c-.13292.14514-.18722.18444.20347.21292.88153.099,1.76042.20472,2.64208.30917.36083.05028.36083.05292.21708-.13417a3.55437,3.55437,0,0,1-.55069-2.17694V41.38174a1.68651,1.68651,0,0,1,.96833-.58458,1.30779,1.30779,0,0,1,.91153,1.35764v8.88139a5.79431,5.79431,0,0,0,.39333,2.42778,2.60467,2.60467,0,0,0,.74056,1.00778l1.32111,1.27639.04333-.095a9.15321,9.15321,0,0,1-.55611-3.36917v-3.7693C110.7177,47.88674,110.76381,47.43229,111.42839,47.07841Z"/><path class="cls-1" d="M86.58312,51.43493a3.36124,3.36124,0,0,1-.55347-2.15667c0-1.71167.00278-3.41792.00278-5.131a13.58559,13.58559,0,0,1,.24417-3.16972c.32278-1.04028.84625-1.52861,1.34278-1.25194a1.07913,1.07913,0,0,1,.35264,1.20181l-.03264.29014.35545-.3825c.45566-.52083,1.31289-1.38069,1.05789-2.17139a1.38171,1.38171,0,0,0-1.79847-.78542c-.39333.60639-1.26681,1.74708-1.52181,2.22722V38.03563l-.14653-.164-2.27858.61847-.02711.23458a2.71791,2.71791,0,0,1,.45833,1.98306c0,1.20569-.04069,5.44972-.01889,8.47028a2.941,2.941,0,0,1-.51542,2.11319l.06236.17361c.43944.01222.43944.02028,2.86458.12611C86.78648,51.61938,86.72687,51.61535,86.58312,51.43493Z"/><path class="cls-1" d="M95.0087,49.19827c0-1.87306.00261-5.28014.0108-7.8518v.00681a5.78406,5.78406,0,0,1,.26583-1.79167c-.43139-.32958-.87347-.64972-1.32375-.98208l-.02722-.02306L93.891,38.528l.00806.00681-.72694-.40958c-2.68555.52347-3.79778,2.13208-4.15042,4.87194v-.03931l-.00264.07861-.05153.35944a1.97083,1.97083,0,0,1-.88444,1.52722,2.548,2.548,0,0,1,.83556,2.00875v-.00542c.171,4.12861,1.06069,4.48805,2.17556,5.01305A6.42817,6.42817,0,0,0,93.042,50.72827l.05955.04611c.076,1.13667.746,1.90569.746,2.89042a.843.843,0,0,1-1.01448.93722,7.56513,7.56513,0,0,1-1.77681-.79889A3.35677,3.35677,0,0,0,88.368,53.5684a6.35373,6.35373,0,0,0-1.32653.68764c-.05694.02986-.62931.45444-.255.28889,1.81747-.78667,2.92969.70667,4.66858.94,2.31111.31194,4.02014-1.26278,4.02014-2.75069,0-.93444-.46389-1.66417-.46389-2.78722ZM93.042,48.86868c0,1.19083-.33642,1.95042-.89253,1.76875-.48833-.14931-1.22889-.57792-1.22889-6.56194,0-2.87417.35-4.09208.90336-4.60889A1.45041,1.45041,0,0,1,93.042,40.88674Z"/><path class="cls-1" d="M73.036,35.2348a2.50065,2.50065,0,0,1,.46375-2.01l-.03514-.15736c-.40972,0-2.72083-.07736-2.72083-.07736l-.26319.18444q-.96021,5.16167-1.92052,10.3218C68.126,40.05118,67.70021,36.598,67.258,33.15688l-.26316-.21292c-.59128-.01083-2.501-.02306-2.87545-.02306l-.17083.01764a13.07049,13.07049,0,0,0-2.45222.26861c-1.77139.42181-2.03722,1.27486-1.85819,1.83639.26042.769,1.80931.63889,2.24333.29028-.93861-.42583-.80833-1.36722.6592-1.77139a6.8681,6.8681,0,0,1,1.76052-.20347,2.71081,2.71081,0,0,1,.36625,1.93694c-.02181.25361-.03264.30917-.77319,4.42972a2.5107,2.5107,0,0,1-1.28583,1.95319,2.58409,2.58409,0,0,1,.56153,2.17819l-.13833.73375C62.44576,48.03729,61.95743,54.941,57.00674,55.767a3.95871,3.95871,0,0,0,3.27975-.56153A7.33843,7.33843,0,0,0,63.859,49.95243c.08958-.39056,2.00472-11.59666,1.99931-11.59666.56694,4.32667,1.11764,8.65472,1.67917,12.98014l.10569.14111c.33642.00264.67014.00806,1.01194.01889l.1275-.10986c.80833-4.324,1.61125-8.66972,2.42778-13.00861.34722,3.6825.67542,7.36625,1.01181,11.03514a5.55179,5.55179,0,0,0,.53986,2.044l.30653.16958c.73236.01486,1.45406.02986,2.19458.0475l.05958-.20889a3.77545,3.77545,0,0,1-.96292-2.44417C74.33534,48.69507,73.08757,35.7841,73.036,35.2348Z"/><path class="cls-1" d="M48.0441,36.5641a2.0434,2.0434,0,0,0,.48556-3.60389c-.48014.42181-.96569.84778-1.45125,1.275C47.07841,34.88619,48.28549,35.58744,48.0441,36.5641Z"/><path class="cls-1" d="M19.54483,55.7141a8.65875,8.65875,0,0,1-4.19378-3.78958,16.19022,16.19022,0,0,1-1.67917-7.8043,22.1172,22.1172,0,0,1,.69444-6.08458c.27125-.921.80014-2.05611,1.74694-2.17278a.84184.84184,0,0,1,1.06072.93181,6.29616,6.29616,0,0,1-.8817,2.15514,2.02606,2.02606,0,0,0-.15194,1.84736c0-.70125.93042-1.70083,1.44861-2.2A3.756,3.756,0,0,0,19.0755,36.172c0-1.06056-.849-1.71167-2.71261-1.48917a4.87227,4.87227,0,0,0-3.28517,2.06694A11.20631,11.20631,0,0,0,11.2548,42.167a4.21559,4.21559,0,0,1-.92764,2.51333,2.66281,2.66281,0,0,1,.99014,2.07931l.00542.02708.00545.01083a13.89471,13.89471,0,0,0,1.76039,5.12014,9.95205,9.95205,0,0,0,6.3775,4.61028l.40153-.16556-.01361-.32819Z"/><path class="cls-1" d="M24.46289,49.92118s.00539-6.71111.00539-7.78264c0-2.75611-1.38611-3.26736-3.07066-3.11-1.53545.14639-2.73989,1.14611-2.73989,2.16194,0,.64972.56694,1.20042.24139,1.85139A1.66636,1.66636,0,0,0,19.91105,41.729c.10847-.61708.20333-1.62889,1.14472-1.71847,1.10944-.10042,1.38072.91694,1.38072,2.33014V42.346l-.01628-.07861c0,1.57194-1.66556,2.83472-3.24972,3.07069A7.86069,7.86069,0,0,0,18.1423,49.5509c0,1.46764.41236,3.43028,1.86642,3.81819l.03789-.015a15.448,15.448,0,0,0,2.54444-1.78222,2.55266,2.55266,0,0,0,1.53278,1.46486c.76486-.61167,1.61128-1.44583,1.64931-1.43361C24.612,51.44035,24.46289,49.92118,24.46289,49.92118ZM22.43105,47.842v2.41833A1.35574,1.35574,0,0,1,21.39761,51.698c-.78947.06514-1.13392-1.38069-1.13392-3.11a6.96231,6.96231,0,0,1,.39333-2.42514c.44486-.98194,1.264-1.35778,1.77947-2.29083C22.4365,45.26493,22.43105,47.04452,22.43105,47.842Z"/><path class="cls-1" d="M58.18688,51.2816a3.68734,3.68734,0,0,1-.57514-2.23389c0-.37569.00542-7.81375.00542-8.63708a3.8801,3.8801,0,0,0-.48014-2.14569,2.04431,2.04431,0,0,0-2.0725-.79083,8.1781,8.1781,0,0,1-1.48389,1.26819,2.99874,2.99874,0,0,0-.48819-1.09458l-.20625-.04472c-.1925.07194-1.25319.57236-1.65194.73653l-.04069.22917a4.73608,4.73608,0,0,1,.45306,1.15694V49.186a3.34786,3.34786,0,0,1-.529,2.13083c-.13833.16819-.19806.21292.21167.18986.88153-.01625,1.7767-.02708,2.67736-.03653.35806-.00542.36083-.00542.22236-.17361A3.17112,3.17112,0,0,1,53.662,49.1834q0-4.79125.00278-9.5825a2.03445,2.03445,0,0,1,.98736-.7175A1.10911,1.10911,0,0,1,55.5691,40.119v8.92333a3.51469,3.51469,0,0,0,.40417,2.07528.772.772,0,0,0,.74333.32819l1.42961-.01764Z"/><path class="cls-1" d="M49.349,49.24715c0-3.84792.00539-7.68639.00539-11.53708l-.16819-.18444-2.25431.76236-.05153.18986a2.71224,2.71224,0,0,1,.46389,1.93681c0,.12347.00542.79208.00542,1.70764a2.45329,2.45329,0,0,1-.88708,2.06972,2.36713,2.36713,0,0,1,.88708,1.90431c0,1.62222-.00542,3.00292-.00542,3.17111a3.3472,3.3472,0,0,1-.52083,2.11861c-.14108.17778-.21431.23333.18444.20486.91417-.019,1.82833-.03931,2.75333-.05431.39614.00681.24153-.02986.11667-.21153A3.25106,3.25106,0,0,1,49.349,49.24715Z"/><path class="cls-1" d="M30.57452,38.3598A7.88421,7.88421,0,0,0,28.62133,39.826s-.69167-.81389-.69167-1.29806c-.62667.51944-1.26955,1.03361-1.9015,1.55028a2.75871,2.75871,0,0,1,.613,1.80264V45.288l-.02444.11125v4.74583A5.67375,5.67375,0,0,1,26.359,51.5366l.25778.156V53.8709a2.90744,2.90744,0,0,1-.45847,1.98153l.04611.18458,2.24333.56278.17361.02583-.00542-.44222V52.63521C31.90369,51.519,32.788,49.06813,32.788,44.89466,32.788,39.24688,31.83591,38.8223,30.57452,38.3598ZM29.62785,51.401c-.605-.015-1.01194-.71069-1.01194-1.511V41.70049c0-1.19625.46389-1.96944,1.02819-1.86361.48556.10042,1.10667.57375,1.10667,6.59444C30.75077,49.31493,30.36022,50.80563,29.62785,51.401Z"/><path class="cls-1" d="M37.95021,39.12882l.33375-.24139.39875-.55875.06778-.28222c-.64292.02722-1.29667.05028-1.93417.07875,0-1.26958.01083-2.41431.01083-2.53778.011-.50042-.10306-.44889-.32539-.10708-.26864.3825-.56156.86528-1.24253,1.80792-.87889,1.20722-1.12569,1.53944-1.36441,1.82431l.1465.19806.765-.04069v3.3a2.60384,2.60384,0,0,1-.88708,2.10639,2.28275,2.28275,0,0,1,.88708,1.89069v3.205c0,.91278.40417,2.30167,1.58958,2.61375.69444-.47472,1.42417-1.039,1.671-1.20722l.019-.20208a2.00457,2.00457,0,0,1-1.28847-2.01139c0-.38125,0-5.82819.01889-9.78472C37.17174,39.16952,37.77938,39.14646,37.95021,39.12882Z"/><path class="cls-1" d="M45.00594,48.87952s.00539-6.7125.00539-7.79208c0-2.75611-1.39428-3.33792-3.08153-3.27153-1.549.05153-2.75611.97111-2.75611,1.98306,0,.66181.56975,1.23417.236,1.86764a1.56627,1.56627,0,0,0,1.02545-1.24111c.103-.62111.20886-1.61667,1.14205-1.64931,1.11489-.04333,1.39153.99292,1.39153,2.40889l-.01083-.07319c0,1.57056-1.68181,2.73833-3.26333,2.87264a7.43878,7.43878,0,0,0-1.03347,4.149c0,1.46222.40958,3.456,1.869,3.93472l.03528-.00264a14.01419,14.01419,0,0,0,2.5525-1.63847,2.76371,2.76371,0,0,0,1.54625,1.54208c.76236-.56556,1.61944-1.35764,1.65208-1.34264C45.15243,50.40132,45.00594,48.87952,45.00594,48.87952Zm-2.04267-2.189v2.41417a1.26534,1.26534,0,0,1-1.03889,1.37542c-.784.01764-1.13389-1.45264-1.13389-3.17653a6.7641,6.7641,0,0,1,.39333-2.40347c.44208-.95347,1.25861-1.279,1.78486-2.18917C42.96869,44.12021,42.96327,45.88882,42.96327,46.69049Z"/><path class="cls-1" d="M113.61214,39.58466v-.00542l.29292-.36486-.1275-.29708-.47194-.11389-.40694.03514v1.47028h.24153V39.6741h.16l.31194.26319.10042.37153h.244l-.084-.36611Zm-.31194-.095h-.16v-.49375l.16-.01764.35542.26458Z"/><path class="cls-1" d="M113.387,38.21466h-.00819a1.32805,1.32805,0,0,0,0,2.65569,1.32841,1.32841,0,0,0,.00819-2.65569Zm0,2.44819a1.12122,1.12122,0,0,1-.00819-2.23931h.00819a1.12161,1.12161,0,0,1,0,2.23931Z"/></svg>