<svg id="Layer_1" data-name="Layer 1" xmlns="http://www.w3.org/2000/svg" viewBox="0 0 125 83"><defs><style>.cls-1{fill:#fff;}</style></defs><title>Crown-Royal-logo</title><path class="cls-1" d="M27.22667,58.32507a13.43675,13.43675,0,0,1-8.26083,2.79819c-6.391,0-9.67264-4.49222-9.67264-10.62291a16.22416,16.22416,0,0,1,6.014-12.94208,12.98052,12.98052,0,0,1,7.43541-2.84972c3.40708,0,5.15875,1.58556,5.15875,4.12736a4.95,4.95,0,0,1-5.051,4.7825c-1.58208,0-2.495-.86264-2.495-2.09972a3.17688,3.17688,0,0,1,1.96333-2.68556v-.18444a5.7719,5.7719,0,0,0-2.67667.71069,2.73051,2.73051,0,0,0-1.54694,2.26111c0,1.355.95209,2.51875,3.9218,2.51875,3.8493,0,8.00986-2.13625,8.00986-5.70889,0-2.695-2.81305-4.37694-6.82375-4.37694-9.54653,0-17.4018,7.27819-17.4018,16.56639,0,7.37167,4.54042,11.56139,11.85847,11.56139a14.60712,14.60712,0,0,0,9.7568-3.43014.30281.30281,0,0,0,.06847-.21847C27.485,58.36035,27.40028,58.29521,27.22667,58.32507Z"/><path class="cls-1" d="M118.11887,37.06452c-3.66347,0-9.35944,7.23194-11.34583,11.07041a28.69263,28.69263,0,0,0-1.74292,3.94014,5.1323,5.1323,0,0,1-2.76624,1.60181c-.40542,0-.64556-.22917-.6164-.7175.06583-1.18944,2.72014-5.04417,3.68111-6.21472l-2.00944.01083-.55264.69042a2.11465,2.11465,0,0,0-1.846-.74194c-3.28639,0-6.65972,3.83708-6.79458,6.22972a1.57183,1.57183,0,0,0,1.66958,1.80667A5.59142,5.59142,0,0,0,99.3654,53.0109a1.385,1.385,0,0,0,1.51167,1.70639A6.98248,6.98248,0,0,0,104.82,52.94854l-.02111.13972c-.52347,2.84153.331,5.12292,3.19292,5.12292,3.55222,0,6.31376-3.55361,8.04709-6.54167.00472-.141-.18987-.17764-.28278-.2075-1.71847,2.32472-3.93139,5.77667-6.93014,5.77667-1.64528,0-1.90847-1.39569-1.825-2.87819a18.47444,18.47444,0,0,1,1.63986-5.49042c3.37653-2.34514,10.32986-7.921,10.55153-10.715C119.25539,37.35743,118.84984,37.06452,118.11887,37.06452ZM97.13429,53.8384c-.56222,0-.685-.45306-.66194-.85056.10181-1.82694,3.12708-5.6925,4.80153-5.6925.39667,0,.60486.24681.58181.67139C101.77568,49.376,98.9904,53.8384,97.13429,53.8384Zm16.8843-10.15764a33.6192,33.6192,0,0,1-4.95667,4.26694c2.177-4.14625,6.1218-9.969,7.98-9.969a.46124.46124,0,0,1,.514.52625C117.44137,39.92368,115.04678,42.536,114.01859,43.68077Z"/><path class="cls-1" d="M93.26527,46.88174l-2.48945,3.97c-.93861,1.52444-2.52153,3.05583-3.70694,3.05583-.42931,0-.55472-.21708-.53847-.49375.07389-1.3225,3.22472-4.46514,3.29667-5.74.04542-.77444-.73722-.98069-1.30485-.98069a9.56956,9.56956,0,0,0-3.93806,1.22208,2.26417,2.26417,0,0,0-2.34861-1.26681c-1.79708,0-3.63222,1.18681-4.97833,2.43056-.17639.16681-2.575,2.23653-3.39083,2.95542a.22382.22382,0,0,0,.08472.35681l2.32-1.83389a4.0224,4.0224,0,0,0-.64694,1.99389c-.004,1.13792.5025,2.15389,2.30986,2.15389,2.62583,0,4.88417-2.11861,6.10819-4.26305a4.92815,4.92815,0,0,0,.609-2.06028,5.31319,5.31319,0,0,1,2.31861-.86264c.30722,0,.49653.16819.47819.53306-.03875.67417-3.104,4.00528-3.17722,5.32917-.05292.97111.73444,1.3075,1.5143,1.3075A5.60339,5.60339,0,0,0,89.45,53.08021c-1.88876,2.99875-3.61667,6.34222-6.21348,6.34222-1.61056,0-2.16264-.7175-2.14431-1.431a1.24816,1.24816,0,0,1,.299-.78125l-.04194-.03264a.94035.94035,0,0,0-.97792.91833c0,1.184,1.33528,1.78083,2.85708,1.78083,3.67222,0,5.93875-2.90667,7.09972-4.59667,1.88667-2.93917,3.50278-5.63014,5.24764-8.39166Zm-10.3332,2.9825c-.31667,1.75917-2.25764,4.18569-4.06292,4.18569-.77722,0-1.07347-.571-1.001-1.38347.17431-1.94222,2.73708-5.44708,4.53833-5.44708.46861,0,.93931.32014.885,1.1a1.90005,1.90005,0,0,0-.569.32417A1.77263,1.77263,0,0,1,82.93207,49.86424Z"/><path class="cls-1" d="M83.12054,61.82854c-4.65764,0-7.06777-3.26208-8.70764-5.69528-1.65736-2.45361-3.1243-5.16625-4.66708-7.17361,5.02374-.69722,10.285-3.93486,10.285-8.92333,0-3.48986-2.86389-6.00319-8.27153-6.00319-5.32305,0-9.87416,3.03958-9.87416,6.14278a2.45322,2.45322,0,0,0,4.771.5575c0-.02569-.034-.06375-.01431-.08a1.9155,1.9155,0,0,1-1.36861.59264,1.40693,1.40693,0,0,1-1.38208-1.51222c0-2.56347,3.15417-4.97514,6.88611-4.97514,4.28139,0,6.28458,2.554,6.28458,5.5068,0,3.65125-3.13111,7.45028-7.84291,8.05792a10.874,10.874,0,0,0-.86944-.91958c1.37944-3.47889,3.82417-8.31291,5.92917-9.26639.13708-.29167-.07861-.41375-.33361-.35681-3.75708.85042-5.7143,4.32139-7.11805,7.07611-.18236.35806-.48153.97653-.60625,1.21389l-.05431-.02444a3.82241,3.82241,0,0,0-1.81139-.49375c-1.14333,0-1.74417.63889-1.74417,1.38764,0,.79611.61028,1.54486,2.36,1.84861-.10723.22514-.65181,1.36722-.83278,1.72806a41.00259,41.00259,0,0,1-4.10361,6.77889,10.9356,10.9356,0,0,1-8.47166,4.46514c-2.23458,0-3.9693-.97667-3.9693-2.8375a2.10245,2.10245,0,0,1,1.16778-1.90708l-.05028-.12069c-1.30139.10847-2.50778.88431-2.50778,2.15931,0,2.32208,2.72625,3.32028,5.80375,3.32028,6.541,0,11.18638-4.31986,14.13235-10.05986.14986-.29431,1.22819-2.52556,1.56792-3.21055.10444,0,.20889,0,.31472-.00264,2.80278,5.33444,4.5443,13.95666,12.991,13.95666A8.34659,8.34659,0,0,0,86.92373,60.997l-.13833-.17764A6.72212,6.72212,0,0,1,83.12054,61.82854ZM65.31263,47.98577c-1.11694-.21569-1.33-.64569-1.33-.96569a.56835.56835,0,0,1,.64167-.54264,2.38612,2.38612,0,0,1,1.21389.40153C65.69513,47.18549,65.41971,47.77007,65.31263,47.98577Z"/><path class="cls-1" d="M49.80972,47.80813a.52913.52913,0,0,1,.57847.60486,2.85941,2.85941,0,0,1-.13028.32958C49.219,50.598,47.36222,52.798,46.2493,54.61965l2.16667-.011c.48083-.60347,2.39472-3.49389,3.12778-4.42569.78125-.99278,1.98167-2.49833,3.13444-2.49833.335,0,.48833.22917.47.57639-.0475.81931-3.129,3.91986-3.20972,5.38736-.055.94819.71611,1.26417,1.60653,1.26417a5.37444,5.37444,0,0,0,3.41125-1.45.46437.46437,0,0,0,.17556-.30778.28744.28744,0,0,0-.12875-.22931,3.61826,3.61826,0,0,1-2.3025,1.15694c-.46181,0-.60347-.255-.58458-.57236.06792-1.2275,3.15292-3.96319,3.24042-5.56236.04264-.74181-.52027-1.07819-1.30208-1.07819A6.37853,6.37853,0,0,0,52.44638,48.276c.16278-.80569-.36556-1.40653-1.31694-1.40653a4.91958,4.91958,0,0,0-2.94736,1.28583,4.81658,4.81658,0,0,0,.35472-1.29264.79535.79535,0,0,0-.86611-.90611,1.25974,1.25974,0,0,0-.99958.60222,1.19976,1.19976,0,0,1,.28347.94944A8.31386,8.31386,0,0,1,45.45374,51.207c-.69167.99958-2.23722,2.62583-3.40374,2.62583-.49431,0-.80362-.29014-.80362-.66319a6.34969,6.34969,0,0,1,1.08986-2.41014c.84167-1.42556,1.91917-3.04236,2.37292-3.80055H42.53625c-.89167,1.35361-1.92319,2.96764-3.00625,4.54111-.90194,1.31556-1.99514,2.31792-2.91347,2.31792-.476,0-.64556-.22653-.62111-.62931a8.15785,8.15785,0,0,1,1.39625-2.49833c.725-1.02681,1.78222-2.41847,1.8168-3.03819.03528-.66194-.45708-.93181-1.0918-.93181a9.62406,9.62406,0,0,0-4.33889,1.60722,1.8172,1.8172,0,0,0-.27334-.87347,1.94784,1.94784,0,0,0-1.77611-.7975,7.39728,7.39728,0,0,0-6.84819,6.0668,4.82058,4.82058,0,0,1-2.61639,1.336c-.55263,0-.70931-.33083-.70181-.73778.02444-1.46083,2.33014-4.994,4.086-6.41139l.00611-.13708c.00264-.09764-.02181-.20069-.12681-.22514a7.38647,7.38647,0,0,1-2.53639.51c-.75556,0-2.16944-.28486-2.15111-1.359l-1.36389.86667a1.13687,1.13687,0,0,0,.51.925A22.16,22.16,0,0,1,13.525,53.98215c-.12695.07458-.291.10306-.3025.31056-.00542.10847.07861.11931.14514.19389A22.65235,22.65235,0,0,0,20.71153,47.804a4.409,4.409,0,0,0,.97181.09222c.22652,0,.44958-.01347.67611-.02028l.03931.03931c-1.19486,1.31569-3.31278,4.09069-3.33583,5.5243-.019,1.16917.81708,1.47847,1.73944,1.47847a7.2265,7.2265,0,0,0,4.12805-1.64528,2.024,2.024,0,0,0,2.25153,1.54764,5.40484,5.40484,0,0,0,3.361-1.30347,9.79234,9.79234,0,0,0,3.18736-4.60611l.01361-.095a8.16366,8.16366,0,0,1,2.76278-1.16361.3344.3344,0,0,1,.37917.396,5.78607,5.78607,0,0,1-1.09458,1.79167c-1.56111,2.13222-2.05347,2.88361-2.05347,3.64861a1.293,1.293,0,0,0,1.46889,1.26139,6.25854,6.25854,0,0,0,3.86958-1.90028c-.276.98889.32083,1.87042,1.64056,1.87042,1.86556,0,3.73125-1.44042,5.08555-3.02458a20.55736,20.55736,0,0,0,2.01347-2.73167A3.11123,3.11123,0,0,1,49.80972,47.80813Zm-17.18695.64278c-.23125.10319-.54514.23069-.60764.35a2.84817,2.84817,0,0,1,.09292.84361c-.04264,1.431-1.95986,4.42028-3.74542,4.42028-.98,0-1.2275-.70931-1.19153-1.36986.12542-2.22306,2.56611-5.4918,4.49556-5.4918a.90813.90813,0,0,1,.98944.94806C32.65611,48.19188,32.62555,48.40618,32.62278,48.4509Z"/><path class="cls-1" d="M116.62956,54.73493a1.15155,1.15155,0,1,0,1.159,1.14875A1.14776,1.14776,0,0,0,116.62956,54.73493Zm0,2.109a.95721.95721,0,1,1,.93181-.96028A.932.932,0,0,1,116.62956,56.844Z"/><path class="cls-1" d="M117.15859,55.59882c0-.26167-.15667-.37569-.47139-.37569H116.184v1.32653h.20014v-.57778h.23125l.35056.57778h.22306l-.37569-.58319A.34887.34887,0,0,0,117.15859,55.59882Zm-.77444.20486v-.411h.2725c.1425,0,.29028.03125.29028.19264,0,.20611-.15056.21833-.32208.21833Z"/></svg>