<svg id="Layer_1" data-name="Layer 1" xmlns="http://www.w3.org/2000/svg" viewBox="0 0 125 83"><defs><style>.cls-1{fill:#fff;}</style></defs><title>JB-logo</title><path class="cls-1" d="M31.6098,31.1373H46.66646c.12069,2.89986.91347,21.9768.94333,22.68472-.13972-.10444-1.40986-1.04708-1.77139-1.29389a2.85042,2.85042,0,0,0-2.18569-.54667,4.81742,4.81742,0,0,0-3.846,3.23486,5.4295,5.4295,0,0,0,.98,5.72792c.19333.21014,1.97347,2.01681,2.96292,3.01778H31.6098V69.4091H93.3902V63.962H53.27452c.07194-.05694.15125-.10986.21972-.16819a9.01432,9.01432,0,0,0,2.83208-4.40805,14.58723,14.58723,0,0,0,.31264-4.08805c-.00889-1.22472-.02306-2.87805-.04069-4.74847.98667.55472,3.14194,1.72792,3.16028,1.73875a3.15037,3.15037,0,0,0,1.76111.32292v2.84278c-.23125.05972-1.47153.38125-1.47153.38125l.01014,2.08194,4.48,2.96625,5.89861-1.79986a10.14763,10.14763,0,0,0,5.98154-4.815,13.4,13.4,0,0,0,1.78291-6.40458c0-.04472.00139-.08958.00139-.13694a8.02478,8.02478,0,0,0-1.26485-4.53028A4.92532,4.92532,0,0,0,74.31132,41.158,8.01688,8.01688,0,0,0,77.02868,37.801a10.37485,10.37485,0,0,0,.87833-4.21958c0-.16819-.00278-.33639-.01153-.50458a9.92651,9.92651,0,0,0-.28278-1.93958H93.3902V25.54647H31.6098ZM43.82563,52.34771l3.26125,2.50514a5.4144,5.4144,0,0,0-1.50278.62264L42.337,52.80618A3.84926,3.84926,0,0,1,43.82563,52.34771Zm34.1593-25.2468h.196l.2293.67819.22708-.67819H78.832v.88972H78.7052v-.746h-.00278l-.255.746h-.08069l-.25222-.746h-.004v.746h-.12556Zm-.77111,0h.60833v.11931h-.24139v.77042h-.12542v-.77042h-.24153ZM64.79187,58.80118c.22181-.06514,1.48931-.434,1.48931-.434l.48014-28.96861s-1.34958.12208-1.66972.15056c.004-.32417.02917-1.78639.03319-2.05764.32834-.02167,6.44264-.47194,6.44264-.47194a5.63223,5.63223,0,0,1,2.4143.25083A4.97074,4.97074,0,0,1,76.358,29.14494a7.42088,7.42088,0,0,1,1.159,3.951c.00819.16.01082.32278.01082.48278a8.69969,8.69969,0,0,1-3.7143,7.45444,3.79073,3.79073,0,0,1-.49444.255c0,.01083,0,.03806.00139.06236a4.20782,4.20782,0,0,1,.56694.08681,4.4536,4.4536,0,0,1,2.73778,1.97222,7.68132,7.68132,0,0,1,1.19694,4.31722v.13153a13.04109,13.04109,0,0,1-1.73,6.2175,9.77358,9.77358,0,0,1-5.76778,4.64264s-4.45417,1.36181-5.56985,1.70083C64.7634,60.05312,64.78647,59.00729,64.79187,58.80118ZM63.49382,38.429a2.15391,2.15391,0,0,1,.71487,1.63306c.03249,1.039-.43542,1.81611-1.13459,1.93819a.84471.84471,0,0,1-.62056-.13833,1.02186,1.02186,0,0,1-.38181-.69444,1.21067,1.21067,0,0,1,.61375-1.41056l.1607-.05569-.03862-.15458a.78188.78188,0,0,0-.95083-.57778c-.78528.14111-1.2525,1.04986-1.281,2.794a2.79164,2.79164,0,0,0,.67944,2.139,1.04777,1.04777,0,0,0,.76292.33083,2.56882,2.56882,0,0,0,.77251-.20472c.00069.34042.00069.95625.00069,1.19083a2.22529,2.22529,0,0,0-.66806.14653c-.90806.335-1.35153,1.28708-1.35153,2.9093,0,.095.00125.19389.004.29028a2.81265,2.81265,0,0,0,.81653,2.13625.959.959,0,0,0,.83278.18167,1.53014,1.53014,0,0,0,.94125-1.52861l-.26236.07736a.53212.53212,0,0,1-.466-.09222.80658.80658,0,0,1-.3025-.65236,1.59635,1.59635,0,0,1,1.03694-1.54222.91823.91823,0,0,1,.81181.15194,1.51677,1.51677,0,0,1,.51751,1.19083,3.79822,3.79822,0,0,1-2.649,3.631A2.83174,2.83174,0,0,1,59.9334,51.949a2.77625,2.77625,0,0,1-1.40514-2.26236A5.03432,5.03432,0,0,1,60.08465,45.627l.19667-.16819-.21833-.13694A3.65836,3.65836,0,0,1,58.54521,42.494a4.09525,4.09525,0,0,1,3.17055-4.46514A2.084,2.084,0,0,1,63.49382,38.429Zm-1.9775,4.82319c-.15333-.06236-.23333-.076-.34181-.12208a2.98536,2.98536,0,0,1-.21972-1.45c.00139-.02847,0-.05694.00139-.084.22042.08958.495.18583.55945.21431C61.51563,42.04493,61.51563,42.8141,61.51632,43.25216Zm-.95014-5.22736-4.08736-1.28042a2.86727,2.86727,0,0,1,1.94778-.02167c.82194.24681,3.13375.95083,3.13375.95083A4.81141,4.81141,0,0,0,60.56618,38.0248Zm.94945-.75958c-1.25667-.3825-2.82654-.85722-3.22473-.97653a3.11538,3.11538,0,0,0-1.3325-.05694,5.18234,5.18234,0,0,0-.51278.13292c-.02639-2.39264-.04944-4.29694-.061-5.22736h5.12889C61.51354,33.20716,61.51493,36.39452,61.51563,37.26521ZM48.80479,55.28549c1.33931.47069,1.80042,2.20278,1.39083,3.53055A3.01757,3.01757,0,0,1,47.578,61.16118l-.17708-.004-.019.179a1.56813,1.56813,0,0,0,.56694,1.4675,2.16868,2.16868,0,0,0,2.07667.14111,2.83758,2.83758,0,0,0,1.78486-1.99111,8.033,8.033,0,0,0,.11875-2.36542c-.15194-5.61528-.75417-27.41291-.76236-27.65986l-.00542-.19931s-1.94694.15056-2.27792.17764c-.01014-.31875-.06236-2.05347-.07264-2.35181.34528-.02181,8.85626-.58056,9.23542-.60639.00124.32153.00666,1.93014.00874,2.20944-.29222.02583-2.05819.17917-2.05819.17917l.00139.17625c.00264.20347.21625,18.42986.26167,24.82638a14.30959,14.30959,0,0,1-.299,3.9443,8.48869,8.48869,0,0,1-2.71069,4.21819c-1.84931,1.56375-4.71667,2.84417-7.21638,1.751-2.47931-1.08778-3.46542-3.91167-2.39792-6.87528C44.42785,56.1834,46.98925,54.65076,48.80479,55.28549Z"/><path class="cls-1" d="M74.26659,49.8466c.19861-3.1318-.27333-5.19875-1.4025-6.13875a2.88383,2.88383,0,0,0-2.67944-.44889l-.13972.0325L69.613,57.37979l.23806-.05028C72.24284,56.81146,74.01771,53.80438,74.26659,49.8466Z"/><path class="cls-1" d="M74.2259,34.45216c.10514-2.49292-.331-4.16528-1.29528-4.96417a2.55232,2.55232,0,0,0-2.314-.42861l-.141.03389-.37028,11.50041.21083-.01486C72.78132,40.38216,74.0584,38.38021,74.2259,34.45216Z"/></svg>