<svg id="Layer_1" data-name="Layer 1" xmlns="http://www.w3.org/2000/svg" viewBox="0 0 125 83"><defs><style>.cls-1{fill:#fff;}</style></defs><title>Johnnie-Walker-logo</title><path class="cls-1" d="M48.269,58.52878l.77373.59118c.00674.53717.01624,1.117.02692,1.74926.00282.6293.00975,1.29219.00975,2.0069-.46976-.61252-.89088-1.14513-1.27669-1.62374-.37916-.48224-.71917-.91121-1.0144-1.265-.30526-.36255-.55268-.66962-.74882-.936a4.37689,4.37689,0,0,1-.42122-.58169H43.91358v.05912l.80248.57074c.06067,1.837.06067,3.3272,0,4.48273l-.67065.551V64.211h1.95927v-.07773l-.739-.551h.00219c-.04279-1.34311-.0624-2.65191-.0624-3.95743l3.38112,4.25959c.04352.05691.10054.12516.1571.19176a.26462.26462,0,0,1,.07535.16494h.78623c-.04378-.73658-.07517-1.52756-.07517-2.37529-.00858-.83238,0-1.75437.03139-2.74586l.6742-.59118v-.05912H48.269Z"/><path class="cls-1" d="M53.64922,58.99442l.65778-.46565v-.05785H51.99921v.05785l.663.46565c.00893,1.53341.00893,3.0763,0,4.646l-.68552.47787v.0719H54.3362v-.0719l-.687-.47787c-.0301-1.49748-.0301-3.03034,0-4.646"/><path class="cls-1" d="M60.13813,63.70084q-1.22122.05092-2.33533,0-.02108-1.13391,0-2.2545.64782-.01889,1.79835-.01953l.44081.65286h.06386V60.31234H60.042l-.44081.66581c-1.01449,0-1.62337-.00914-1.8124-.02263-.00876-.32223-.02117-.64976-.02117-.97709s0-.65467.01241-1.0081c.3558-.02791.74335-.03322,1.12361-.03322.37878,0,.78057.00531,1.20223.00531l.48061.66123h.064v-1.134H56.16537v.05893l.6523.46583c.01624,1.33435.01624,2.87287,0,4.64622l-.6523.47749v.07281h4.60078V62.92246h-.06532Z"/><path class="cls-1" d="M40.35666,58.52878l.76069.59118c.00785.53717.01734,1.117.02354,1.74926.01041.6293.01041,1.29219.01041,2.0069-.45434-.61252-.87883-1.14513-1.26118-1.62374-.38919-.48224-.7335-.91121-1.03174-1.265-.29313-.36255-.5358-.66962-.73613-.936a5.411,5.411,0,0,1-.42241-.58169h-1.701v.05912l.79553.57074c.0613,1.837.0613,3.3272,0,4.48273l-.66142.551V64.211h1.954v-.07773l-.738-.551h.00392c-.04316-1.34311-.07234-2.65191-.07234-3.95743l3.38969,4.25959a2.06666,2.06666,0,0,1,.15188.19176.28029.28029,0,0,1,.08094.16494H41.684q-.08032-1.10488-.08128-2.37529c-.00611-.83238.0032-1.75437.03969-2.74586l.67218-.59118v-.05912H40.35666Z"/><path class="cls-1" d="M74.5581,57.061c.10984.06459.22079.14889.33282.22389.1175.07845.21969.16.31748.23738-.20836.75357-.41055,1.425-.57657,2.045-.17591.60723-.3288,1.12744-.458,1.575-.13028.43571-.23174.80246-.31273,1.09313-.073.27953-.12737.48005-.14927.585l-1.587-5.235c.11093-.11022.21494-.21313.31238-.30052a2.79929,2.79929,0,0,1,.3-.22389v-.06624H70.206v.07427l.63532.49119c-.17662.54739-.33426,1.06741-.48351,1.57391q-.21569.7305-.40946,1.3807c-.12808.42641-.24121.83512-.35178,1.20571-.1164.37368-.208.73-.30069,1.06886l-1.49912-5.21732.61527-.51109v-.06624H65.97581V57.061c.1051.08339.19633.152.266.21548a1.87444,1.87444,0,0,1,.17625.14617.74388.74388,0,0,1,.10547.11149.23436.23436,0,0,1,.05766.12023c.08137.2496.18976.601.33973,1.04788.14744.47166.312.99588.50615,1.57774.19232.58625.4047,1.22032.62439,1.90729.21348.6906.43865,1.39509.65686,2.149h.80138a.236.236,0,0,1-.01168-.0781.547.547,0,0,1,.01751-.14323c.00914-.04378.02591-.098.03468-.14742a.58852.58852,0,0,0,.04634-.13484c.069-.25418.142-.5233.21786-.81743.07664-.294.1624-.60906.25363-.93038.09378-.31821.18976-.65267.27808-.99314.10181-.33118.18792-.66929.289-1.00573.08832-.32168.1832-.64283.27953-.94882.08285-.32843.17883-.60923.25362-.8676l1.90126,6.06668h.76891c.02883-.12571.08685-.36875.19084-.73442.10364-.35562.235-.8125.40945-1.38106.16933-.55778.37406-1.22942.60359-1.997.231-.77145.49264-1.65969.77-2.61688.16386-.15893.29706-.27369.3996-.37185.1-.09069.16786-.15583.21055-.18721v-.0531H74.5581Z"/><path class="cls-1" d="M15.8155,57.02528l.87709.54629.05813,6.14626c0,.25233,0,.46637-.009.6574a4.63535,4.63535,0,0,1-.05491.51381,1.94619,1.94619,0,0,1-.138.43919,1.9755,1.9755,0,0,1-.26029.389,1.519,1.519,0,0,1-.49255.39121,1.29517,1.29517,0,0,1-.6242.13174.314.314,0,0,0,.06257-.09379.501.501,0,0,0,.04744-.10947.65584.65584,0,0,0,.01569-.15637.35771.35771,0,0,0-.041-.17152.87671.87671,0,0,0-.11567-.17791.71206.71206,0,0,0-.17728-.11295.464.464,0,0,0-.2132-.05127.56832.56832,0,0,0-.39466.16421.49848.49848,0,0,0-.12662.18484.526.526,0,0,0-.05529.22935.59924.59924,0,0,0,.09279.32826.71968.71968,0,0,0,.23118.22735,1.09918,1.09918,0,0,0,.30771.127,1.15006,1.15006,0,0,0,.32662.04524,2.02506,2.02506,0,0,0,.64382-.10837,2.32925,2.32925,0,0,0,.568-.29431,3.12486,3.12486,0,0,0,.49567-.45,3.16889,3.16889,0,0,0,.38717-.59264c.09325-.18083.18721-.3569.26659-.53042a2.479,2.479,0,0,0,.20818-.55778,4.18738,4.18738,0,0,0,.133-.63515,5.69435,5.69435,0,0,0,.03567-.79664c-.00648-.3153-.013-.628-.01889-.9581-.0063-.33719-.00766-.70286-.01678-1.11649-.0062-.41182-.01233-.86487-.0187-1.37248-.0093-.52185-.0116-1.10427-.0116-1.762l.731-.47349V56.959H15.8155Z"/><path class="cls-1" d="M25.20345,62.49185a2.56351,2.56351,0,0,1-.44831.82746,2.24872,2.24872,0,0,1-.63507.53188,1.90584,1.90584,0,0,1-.744.16494,1.97784,1.97784,0,0,1-.79443-.17843,2.2039,2.2039,0,0,1-.65951-.53571,2.56187,2.56187,0,0,1-.456-.84682,3.55868,3.55868,0,0,1-.16248-1.1203,4.036,4.036,0,0,1,.1343-1.06395,2.5532,2.5532,0,0,1,.40113-.82984,1.96347,1.96347,0,0,1,.63416-.56964,1.78544,1.78544,0,0,1,.85237-.20472,1.81684,1.81684,0,0,1,.86268.20472,1.86165,1.86165,0,0,1,.64628.56363,2.70236,2.70236,0,0,1,.39986.83585,3.78086,3.78086,0,0,1,.1425,1.06395,3.47655,3.47655,0,0,1-.17352,1.157m.84781-2.75079a2.3406,2.3406,0,0,0-.51419-.61527,2.60668,2.60668,0,0,0-.627-.49283,2.747,2.747,0,0,0-.71543-.30324,2.8488,2.8488,0,0,0-.76188-.10183,3.22917,3.22917,0,0,0-1.27185.24159,3.17322,3.17322,0,0,0-1.68813,1.65366,2.99719,2.99719,0,0,0-.24123,1.21174,2.8616,2.8616,0,0,0,.24743,1.19238,2.97343,2.97343,0,0,0,.68423.97727,3.211,3.211,0,0,0,1.00253.67967,2.67145,2.67145,0,0,0,1.23226.23153,2.55637,2.55637,0,0,0,1.23016-.24067,2.87449,2.87449,0,0,0,.97937-.6804,3.10752,3.10752,0,0,0,.66123-.97709,3.15678,3.15678,0,0,0,.118-2.03263,3.07285,3.07285,0,0,0-.33545-.74389"/><path class="cls-1" d="M32.00171,58.52878l.66.46546v1.95307c-1.02854.00658-2.03565.00658-3.03673,0V58.99424l.6586-.46546v-.05912H27.99778v.05912l.64135.46546v4.64622l-.64135.47824v.07225h2.28578v-.07225l-.6586-.47824V61.41277c1.00108-.01058,2.00819-.01058,3.03673,0v2.22769l-.66.47824v.07225h2.287v-.07225l-.64783-.47824c-.01825-1.455-.01825-2.98873,0-4.64622l.64783-.46546v-.05912h-2.287Z"/><path class="cls-1" d="M78.34566,61.66293l.8813-2.42473.94078,2.42473Zm1.54692-3.28159h-.82072l-1.98519,5.21971-.66452.55284v.07227h1.93446V64.1539l-.72584-.55284.54849-1.51007q1.14787-.0093,2.15013,0l.59446,1.51007-.73715.55284v.07227h2.51653V64.1539l-.66052-.57547Z"/><path class="cls-1" d="M101.18738,63.73625c-.8386.03358-1.61954.03358-2.34867,0q-.01914-1.13363,0-2.254c.42405-.01313,1.01743-.01952,1.8053-.01952l.44483.65267h.06715V60.34738h-.06715l-.44483.66616c-1.028,0-1.62319-.00876-1.81806-.02171-.00839-.32241-.01642-.65011-.01642-.978-.0062-.327,0-.65394.008-1.00846.35287-.02756.72-.03285,1.11045-.03285.38536,0,.80394.00529,1.228.00529l.46819.66125h.062V58.50542h-4.486V58.564l.64774.46619c.0219,1.334.0219,2.87287,0,4.64657l-.64774.47678v.07279h4.60426V62.95822h-.069Z"/><path class="cls-1" d="M106.04817,61.32519h-.30435c-.06861-.00512-.13611-.00512-.18538-.00512a1.03521,1.03521,0,0,1-.15618-.00674l.00985-2.355c.07554,0,.16859-.01112.25691-.015.09051-.00346.17552-.00346.2664-.00693.08283-.00583.15289-.00985.22077-.00985h.14342a1.3842,1.3842,0,0,1,.52.09069,1.12911,1.12911,0,0,1,.40287.26328.9695.9695,0,0,1,.24889.36073,1.17321,1.17321,0,0,1,.08611.441,1.12089,1.12089,0,0,1-.38865.92236,1.68493,1.68493,0,0,1-1.12067.32058m2.96646,2.73255c-.04889-.05146-.1113-.11184-.17077-.16513-.06095-.07244-.11678-.15655-.16969-.22589a1.03068,1.03068,0,0,1-.14013-.17387l-.90284-1.39858a1.18562,1.18562,0,0,0-.331-.387,1.13135,1.13135,0,0,0-.48609-.16,2.90892,2.90892,0,0,0,.74882-.13174,1.937,1.937,0,0,0,.59118-.31165,1.445,1.445,0,0,0,.393-.45834,1.30166,1.30166,0,0,0,.14523-.59046,1.26835,1.26835,0,0,0-.16713-.618,1.67492,1.67492,0,0,0-.45944-.50068,2.20392,2.20392,0,0,0-.716-.31929,3.33078,3.33078,0,0,0-.92765-.11057h-2.66357v.05764l.647.48792v4.62468l-.68315.47732v.07208h2.34136v-.07208l-.64556-.45049-.02117-1.96238c.13539-.00676.25764-.01863.37258-.01863h.24852a.8154.8154,0,0,1,.28136.05.55525.55525,0,0,1,.19779.19579l1.34146,2.25779h1.30277v-.07208a.53794.53794,0,0,1-.127-.09634"/><path class="cls-1" d="M92.61931,60.911c.49887-.47258.924-.87218,1.27213-1.19076.35252-.312.60651-.54647.7886-.703l.8678-.45324v-.05747H93.621V58.564l.29413.4441c-.20035.219-.41017.41621-.61088.61837-.20766.19871-.41456.38736-.6171.57584-.20033.18649-.39192.37058-.58024.5359-.1883.16694-.36565.3308-.53607.46182.662.66379,1.41846,1.4909,2.299,2.50356l-.24887.45031v.07227h2.08152V64.1539l-.44375-.45031c-1.23564-1.27523-2.11146-2.19083-2.63951-2.79259"/><path class="cls-1" d="M91.57088,59.03018l.66964-.466v-.05747h-2.3264v.05747l.65834.466c.00985,1.5429.00985,3.07886,0,4.64641l-.68277.47714v.07188h2.3596v-.07188l-.6784-.47714c-.01022-1.58305-.01022-3.1223,0-4.64641"/><path class="cls-1" d="M87.83114,63.71033H86.69367c-.36055,0-.68242-.0062-.978-.0062-.019-1.57666-.019-3.11918,0-4.67413l.72366-.45488v-.06532H84.05964v.06532l.65213.45488c.0219,1.54308.0219,3.07614,0,4.64659l-.65213.47749v.07225H88.446V62.94948h-.0843Z"/><path class="cls-1" d="M110.936,63.32808c0,.06861-.04817.11659-.13757.11659H110.621v-.23574h.173c.08757,0,.14194.03942.14194.11915m.17918-.01076c0-.167-.123-.26457-.31492-.26457H110.444V63.855h.177v-.25818h.13976l.17117.25818h.20618l-.196-.28738a.25.25,0,0,0,.173-.25033m.30653.15674a.66746.66746,0,1,1-.66525-.66983.66464.66464,0,0,1,.66525.66983m.08759,0a.75466.75466,0,1,0-.75648.75648.74974.74974,0,0,0,.75648-.75648"/><path class="cls-1" d="M93.37525,74.92812V73.26936H91.695v.60322h1.00991v.73952a1.61588,1.61588,0,0,1-.95371.29941,1.41186,1.41186,0,0,1-.06278-2.81594,1.54549,1.54549,0,0,1,1.10627.42387l.439-.52549a2.132,2.132,0,0,0-1.51625-.53536,2.0121,2.0121,0,0,0-2.03573,2.04851,1.95916,1.95916,0,0,0,2.04649,2.035,2.516,2.516,0,0,0,1.64708-.614m-6.71551-.67147L84.5439,71.52647h-.64208v3.94867h.68151V72.66685l2.178,2.80828h.581V71.52647h-.68259Zm-6.33893,1.21849H81.014V71.52665h-.69318Zm-4.16871-2.25159,1.64252-1.69708h-.85174L75.0648,73.51222V71.52647h-.69408v3.94867h.69408V74.32965l.61362-.63134,1.34912,1.77682h.84024Zm-6.92847,2.25159H71.992v-.63132H69.91628V71.52647h-.69264Zm-3.74777-1.5679H64.11708l.67657-1.5792Zm-.34958-2.40814h-.64245l-1.73758,3.976H63.456l.40672-.95409H65.731l.39922.95409H66.865Zm-8.15269,2.95461-.94205-2.92724h-.75028l1.376,3.97658h.5983l.97042-2.83619.96952,2.83619h.59828l1.377-3.97658H60.4431l-.94205,2.92724-.97069-2.93836h-.58644Zm-7.87983-1.58432c0,.42185-.327.71088-.85254.71088h-.80676V72.15816h.80676c.52,0,.85254.24175.85254.71123m.70368-.01715a1.32562,1.32562,0,0,0-1.49976-1.32577H46.74147v3.94867h.693V74.20592h.78487a1.39288,1.39288,0,0,0,1.57812-1.35368m-5.65014-1.32577H41.22044v3.94867h2.95478v-.62056H41.91307V73.79375h1.98035v-.62037H41.91307v-1.0269h2.23425Zm-5.5204,0H35.69913v3.94867h2.95579v-.62056H36.39286V73.79375H38.373v-.62037H36.39286v-1.0269h2.23406ZM31.668,73.22355l1.64106-1.69708h-.85183l-1.87854,1.98575V71.52647H29.886v3.94867h.69271V74.32965l.61473-.63134,1.34884,1.77682h.84024Z"/><path class="cls-1" d="M95.44711,74.59111c0,.06861-.04817.11659-.13757.11659h-.17735V74.472h.173c.08759,0,.142.0394.142.11915m.17918-.01076c0-.167-.123-.26459-.31494-.26459H94.9552v.8023h.177v-.2582h.13976l.17115.2582h.20618l-.196-.28738a.25.25,0,0,0,.173-.25033m.30653.15672a.66746.66746,0,1,1-.66525-.66981.66464.66464,0,0,1,.66525.66981m.08759,0a.75467.75467,0,1,0-.7565.75648.74976.74976,0,0,0,.7565-.75648"/><path class="cls-1" d="M64.46612,13.24065c-.02937-.01852-.05163-.04333-.07991-.06231a.667.667,0,0,0-.09962-.05409c-.12754-.056-.25052.08-.37185-.01405-.07773-.06013-.13994-.13987-.214-.20545a1.87842,1.87842,0,0,0-.2175-.16732c-.06112-.04124-.25726-.18949-.31365-.06943a.62877.62877,0,0,0-.04013.23036,2.03385,2.03385,0,0,0,.01769.29786,2.13114,2.13114,0,0,0,.19377.64191l.00219.00447c.06168.18693.254.02819.36529-.00374a1.04676,1.04676,0,0,1,.18428-.04032c.035-.0031.06988.04625.09142.06732a.47034.47034,0,0,0,.14833.10728.293.293,0,0,0,.24979.00146.6.6,0,0,0,.10164-.07561c.02919-.02336.03649-.02009.069-.00183a2.94592,2.94592,0,0,0,.33318.18985c.0281.01114.07846.03111.10456.00712.03412-.03092.00529-.10465-.00693-.13839A1.48619,1.48619,0,0,1,64.9,13.62418a.79354.79354,0,0,1,.11422-.53186c.02537-.03924.11715-.17171.05456-.21649-.03593-.03832-.14049.00181-.17954.01513a1.18949,1.18949,0,0,0-.34979.17171c-.02134.01487-.02535.05456-.02061.101.00146.01833.01624.12152-.05274.077M53.96123,41.27606a8.29871,8.29871,0,0,1-1.52164-.00712,3.98384,3.98384,0,0,1-.86113-.23445c-.09936-.0438-.15947-.09051-.24988.09159-.10684.2133-.71964,1.36428-.93686,1.894-.21877.53151-.59189,1.48653-.683,1.82882-.09206.34213-.30354.84882-.20336-.0812a12.75718,12.75718,0,0,1,.88639-2.85772,7.68328,7.68328,0,0,1,.63571-1.0831c.03748-.06969-.11715-.17188-.14534-.19577a.44348.44348,0,0,1-.12617-.13813c-.04817-.08266-.02491-.20782-.09716-.11421a7.01,7.01,0,0,0-.89041,1.67755c-.18574.50524-.52777,1.69818-.65832,2.29264a7.28039,7.28039,0,0,1-.247.90411,1.34932,1.34932,0,0,1-.18949.35178c-.042.04215-.102.094-.16659.15418-.00738.00656-.02436.0208-.00146.01678a.61959.61959,0,0,1,.38827.03249c.07382.06823.08.20308-.10975.32314a2.28411,2.28411,0,0,0-.352.364c-.10764.11788-.32185.02975-.339-.1863-.00585-.02554-.01177-.01149-.01541-.00564a1.31255,1.31255,0,0,0-.13731.70155l-.03257.07554a1.33377,1.33377,0,0,0-.01013.96743,4.164,4.164,0,0,0,.30672.62584l.42249-.00785s.23877.63078.51574,1.26428a1.71805,1.71805,0,0,0,1.17286,1.092,4.3134,4.3134,0,0,0,1.7292.32223c.35717-.01478.49958-.05291.53362-.12444.11057-.23684-.04335-.2903-.04335-.2903a.52766.52766,0,0,0-.06943-.59993,4.65338,4.65338,0,0,0-.82681-.59995,3.54921,3.54921,0,0,1-.56045-1.09184,4.45068,4.45068,0,0,1-.21849-1.46353c-.0011-.01588.02089-.02136.03038-.02519a.26448.26448,0,0,0,.18593-.31858.6523.6523,0,0,0-.07864-.1551c-.01523-.02444-.01342.00148-.01342.00822a.134.134,0,0,1-.06932.1332c-.13987.07481-.15876-.10364-.30044-.12974-.18017-.035-.23729-.1352-.10719-.21036a.2847.2847,0,0,1,.29267-.03212.50941.50941,0,0,1,.11276.08849c.00366.00475.01041.01332.014-.00564.00219-.01515.00547-.03231.00931-.05183a3.58719,3.58719,0,0,1,.31184-1.04386,20.25994,20.25994,0,0,1,2.07029-3.12174c.44194-.55432.64438-.74992.72894-.85848.08421-.10912.18557-.194-.08567-.17572m-4.50116,7.98272c-.156.17955-.37606-.37951-.465-.61379-.08968-.235-.38691-.53809-.3891-.8448-.00256-.308.07763-.3766.07763-.3766.15072-.14361.23493.08813.25216.31384.01889.23592.17974.40761.40225.69772.2226.28975.30242.614.12206.82363m1.32622.76106a.73208.73208,0,0,0,.22115.297,1.3821,1.3821,0,0,0,.22909.1062c.03221.01058.16257.07152.13512.09561a.45992.45992,0,0,1-.16038.01788.6804.6804,0,0,1-.353-.09251,6.68606,6.68606,0,0,1-.623-.27972c-.16915-.13174.12317-.28938.28811-.28609a.35789.35789,0,0,1,.26292.14159m-.4972-.23994c-.17361-.00364-.24185.11349-.39384.12171-.068.00656-.13292-.09854.03174-.25509a.68454.68454,0,0,1,.50014-.12571c.23856.05073.15362.26457-.138.25909m15.455-39.54924c-.03649.11094-.06459.28228-.11349.47633a2.04053,2.04053,0,0,1-.30836.66041c-.09762.17535-.09762.2081-.07354.19506a1.78359,1.78359,0,0,0,.57239-.73433,1.461,1.461,0,0,0,.089-.4172c.07134-.56034-.0874-.3641-.1082-.32479a.70244.70244,0,0,0-.05785.1445M67.38626,40.014a2.68649,2.68649,0,0,1,.62-1.02852c.04452-.06123-.04707-.29769-.11184-.44055-.01478-.036-.02208-.04636-.03395-.05557a.2503.2503,0,0,0-.08175-.00265c-.042-.00108-.09122.00265-.11349-.04452a4.20218,4.20218,0,0,0,.10693-.51252,2.25793,2.25793,0,0,0-.08557-.86332c-.0593-.21851-.11349-.29824-.17572-.32415-.05491-.02453.00512.106.01952.3444a1.82533,1.82533,0,0,1-.1571.8519c-.14725.29414-.32314.55634-.38682.72438-.06313.1676-.031.30444.10383.33637l.00327.00035c.0469.00183.0874.013.10291.1094.02208.148-.01185.45615-.54629,1.09823a5.58051,5.58051,0,0,1-.73113.6452,1.11829,1.11829,0,0,1,.01186.29084.87.87,0,0,1-.12827.37077.6778.6778,0,0,1-.08376.05656c-.26621.16915-.04452.48571-.04452.48571a7.60172,7.60172,0,0,0,.87236-.52439,2.82576,2.82576,0,0,0,.83952-1.51792m8.2763,6.8812a.19051.19051,0,0,0-.1531.06168.60354.60354,0,0,0-.65467-.033.78423.78423,0,0,0-.18975.36236c-.04415.20418-.04981.46419-.11788.491-.02061.02517-.05893.03174-.12261.00893-.22808-.083-.20254-.0219-.37533.08174a1.215,1.215,0,0,1-1.08729.04507c-.00914-.00747-.06624-.07244-.04015-.06788A1.619,1.619,0,0,0,73.95435,47.58a.722.722,0,0,0,.092-.08776c.00766-.00822.04523-.0531-.01078-.03576-.027.0093-.05437.01988-.12279.04124a3.8306,3.8306,0,0,1-2.0049-.14835,1.65438,1.65438,0,0,1-.46381-.18921.19114.19114,0,0,0-.08576-.2226.68934.68934,0,0,0-.28919-.07737.85456.85456,0,0,1-.22516-.27241,32.79438,32.79438,0,0,1-1.32213-3.03251,33.51484,33.51484,0,0,1-1.06229-3.38687h.00164s-.02007-.07918-.04617-.1789c-.00656-.03367-.01186-.05263-.01186-.05263v.00146c-.02646-.09753-.05473-.20582-.08029-.28009-.0071-.02371-.01532-.03412-.02279-.0352-.05091-.09114-.10912.31529-.08484.62711a5.20353,5.20353,0,0,0-.25052.51619,2.81137,2.81137,0,0,1-.68625,1.26757c-.28609.22077-.47732.30545-.51746.34631-.03851.04069.01551.05145.07956.08266a.23431.23431,0,0,1,.10362.08393,2.03121,2.03121,0,0,1,.11642.24779c.00693.02263.01569.04617.0239.07188A12.44283,12.44283,0,0,0,68.36389,45.607c.43243.67037.97653,1.454.7262,1.2101a12.42233,12.42233,0,0,1-1.51463-1.71442,4.65882,4.65882,0,0,1-.68879-1.30881c-.11769-.35507-.20891-.66069-.24869-.789-.0062-.019-.02683-.08795-.03193-.10566a1.01478,1.01478,0,0,0-.0624-.146c-.09177-.14178-.14817-.216-.23884-.17481-.08449.03759-.31457.17262-.31457.17262a7.82517,7.82517,0,0,0,.966,1.989,17.07014,17.07014,0,0,0,1.5991,2.12513c.05054.06349.09706.12279.14013.17881.081.116.15254.22187.21074.31292a.50169.50169,0,0,0,.08156.379.24654.24654,0,0,0,.10383.06861c.05583.01205.25216.02427.14835.269-.017.0438-.0449.08174-.06022.12864a.31385.31385,0,0,0,.00966.21694c.05056.13193.19542.21567.22516.29614.0292.08118.04342.22406.1332.49647a1.7213,1.7213,0,0,0,.06842.175,1.67022,1.67022,0,0,0,.11349.27387,3.45153,3.45153,0,0,0,.68954.834l.40505.43627a3.7259,3.7259,0,0,0,.70467-.27753,2.6033,2.6033,0,0,0,.62786-.39175L72.06,49.78427l.28374-.11039a12.36775,12.36775,0,0,0,2.02842-.6324A3.933,3.933,0,0,0,75.868,47.12c.02663-.1312-.15949-.21877-.20545-.22481m-5.52734,2.51543c-.06367.04325-.32077.01478-.46052-.29868a2.4026,2.4026,0,0,1-.11405-.458c-.02188-.13482.25855-.21093.39924-.12862.139.08356.10364.33717.10364.33717-.00329.40343.13555.5058.07169.54812m2.28225-.12242a4.31456,4.31456,0,0,1-.71069.191A1.87046,1.87046,0,0,0,70.98,49.829c-.3204.19542-.21438-.27023-.08174-.40361a1.69639,1.69639,0,0,1,.8906-.195,3.14346,3.14346,0,0,0,.72293-.13667c.0363-.00839.048.125-.09434.19452m-3.032-27.59057a.72164.72164,0,0,1,.26531.07636l.13155-.24659a.69389.69389,0,0,0-.0469-1.386.68493.68493,0,0,0-.41365.138c-.01112.00848-.02042.0208.027.0063a.25821.25821,0,0,1,.19469-.01443l.00783.00585c.06224.07234-.06386.11539-.06859.2673-.0022.04826-.01844.13139-.07591.15035a.24.24,0,0,1-.18392-.0531.18688.18688,0,0,1-.06314-.13638c-.00073-.03486-.01349-.02563-.02152-.01114a.61336.61336,0,0,0-.09488.34121.69374.69374,0,0,0,.10545.36638c-.09852.22242-.2434.55249-.264.623-.03139.1082.25343-.12573.50066-.12718m.89445.43125a.8271.8271,0,0,1,.1102.10829.2551.2551,0,0,0,.20418-.20655c.02061-.105-.08212-.18583-.29213-.217-.21074-.03257-.31821-.07444-.42549-.08776a.27445.27445,0,0,0-.20782.05665c.02352.00994.042.01971.05747.02782a4.7063,4.7063,0,0,1,.55359.31858m-8.65619,9.18607a7.37762,7.37762,0,0,1,.8375-.74555c.23282-.16988-.0364-.11422-.82034.41875a4.29964,4.29964,0,0,0-.95382.98028,24.40935,24.40935,0,0,0-1.60887,2.87971,4.50377,4.50377,0,0,1-.98064,1.37412c-.47176.41264-1.02361.59081-1.29877.83724a1.22268,1.22268,0,0,0-.09279.08912.34011.34011,0,0,0-.08374.10529.43048.43048,0,0,0-.0489.2277.50983.50983,0,0,1-.10684.39906,1.4338,1.4338,0,0,1-.54464.296c-.02491.00785-.04946.01478-.074.02152-.04964.01368-.22918.0645-.25665.06861-.21959.03219-.34037.13174-.16048.23327a.72449.72449,0,0,0,.21832.08238c.164.046.20919.07756.20846.15016-.00108.09753-.11859.273-.54518.4058a6.14112,6.14112,0,0,1-1.65777.18019,3.94673,3.94673,0,0,0-.78942-.0074c-.07326.0375-.0469.12709.25317.21732.15984.04708.56445.11978.7543.18466.11349.03969.08019.13539-.05966.16212a3.526,3.526,0,0,1-1.28883-.09908c-.00265-.0011-.14725-.05118-.209-.08311a1.08464,1.08464,0,0,1-.44-.38747c-.03959-.07307-.0542-.21109-.115-.24923l-.32486.44309s-.04187.13247.19222.42706c.03621-.03942.03038-.10874.06149-.16367.04041-.07453.13794-.12873.20254-.03485a.32666.32666,0,0,1,.011.28144.28422.28422,0,0,0-.04086.13284.13318.13318,0,0,0,.00747.0312,1.77861,1.77861,0,0,0,.75357.32167,3.86,3.86,0,0,0,1.68049-.02918c.05073-.01187.27514-.05893.28928-.01a.56662.56662,0,0,1-.059.23191c-.04734.116-.07408.15162-.10228.2226-.02381.07956.02528.07481.03768.06769a1.057,1.057,0,0,0,.22862-.1925c.08148-.07791.34184-.31346.40653-.38226.22552-.208.35371-.31976.32286-.41938a.23221.23221,0,0,1-.00839-.06725.329.329,0,0,1-.02526-.10491c-.00848-.15172.07251-.28938.30451-.45954a4.1679,4.1679,0,0,0,.7-.46252c.22826-.23465.06579-.49248.26092-.71562.19532-.22443.525-.32206.63661-.4796.17316-.24624.16806-.30963.34231-.59821A11.17948,11.17948,0,0,1,58.65944,35.951a12.964,12.964,0,0,0,1.37786-2.2826,13.151,13.151,0,0,1,1.58643-2.35347m-7.6709-1.87663c-.01487.01187-.02928.02965-.05529.053a1.25234,1.25234,0,0,0-.02272,2.02424c.24715.15463-.01842-.09123,1.08756-1.47831a7.34718,7.34718,0,0,1,1.25115-1.06212c-.141.02481-.52878.08567-1.11339.21166a7.24,7.24,0,0,0-1.14732.25152m14.98434-5.346c.1956-.121.27845-.14213.40434-.22333a.37006.37006,0,0,0,.16842-.26823c-.01168-.08447.03776-.11048.16238-.16311a.29207.29207,0,0,0,.191-.19988c.03741-.095.05928-.174.05928-.174s.03614-.073.18849-.09424c.15091-.02108.34577-.09478.33811-.27141a1.1483,1.1483,0,0,0-.07279-.30672l-.004-.01-.00073-.00291-.00366.00848a.26806.26806,0,0,1-.31821.07937c-.22843-.08458-.37441-.17279-.47659-.20947-.13612-.04826-.2704-.05119-.21257.07947.05766.13036.08851.19159.0031.27871a.65471.65471,0,0,1-.12535.08274c-.156.06835-.20216.18365-.18555.241a.21317.21317,0,0,1-.06041.22589c-.08191.06859-.17754.15172-.17206.25188.00566.09972-.02554.14678-.129.21978-.10437.0739-.23191.08494-.60651.12206a1.06608,1.06608,0,0,1-.62074-.095.17909.17909,0,0,0-.25508.13722c-.006.09989,0,.131.1082.14725.10949.01532.12025.09953-.01624.12615-.135.026.13649.18466.2684.21577.01952.00376.04763.01231.0644.0156-.62493,1.31884-8.13279,16.20958-8.1877,16.35554a.08186.08186,0,0,0,.03475.1042.08475.08475,0,0,0,.11788-.01626c.06687-.09979,8.73993-16.5192,8.73993-16.5192a1.98511,1.98511,0,0,0,.59847-.1374M50.55266,33.395c.31856.2704-.95948-1.378,2.68876-3.85908-2.154.40268-2.54153,1.10662-2.68056,1.38214-.06.1187-.14716.38162-.17991.43244-.12946-.8281.66125-1.36291.97909-1.54181,1.13829-.643,2.29456-.61591,4.51422-1.27577.12425-.0363.62192-.20428.71252-.238a7.1772,7.1772,0,0,0,1.37312-.66644,5.80172,5.80172,0,0,0,1.59682-1.42558c.04662-.05054.08894-.108.13492-.15956.09015-.0989-.065-.04443-.18912.00338-.28828.112-.71215.28191-1.07488.41027a7.12746,7.12746,0,0,1-.87819.25836c-.49065.10719-.862.03083-.34185-.15491a25.69918,25.69918,0,0,1,3.34947-1.28618c.09131-.02528.18036-.04671.26875-.06678.063-.01452.12746-.02819.18968-.04006a5.58529,5.58529,0,0,1,1.03785-.09871,4.19659,4.19659,0,0,1,.97753.07535,3.60975,3.60975,0,0,0,.56874-.66461c.0321-.05082.05947-.10045.08466-.14944.01642-.02857.0312-.05747.04469-.08686l.01405.033c.12427.283.56052,1.2297.77347,1.04368a4.97324,4.97324,0,0,0,.30489-1.34967c-.31384-.1468-.75265-.35526-.70686-.3464.06807.015.31675.09607.44466-.0333l.01588-.01743a.2379.2379,0,0,1,.09049-.06934.13065.13065,0,0,1,.15655.05966.10448.10448,0,0,1,.01624.02044.52175.52175,0,0,1,.05639.12573.51106.51106,0,0,0,.08174.168c.168.18548.1164.10355.58515.29641.03778.01588.07117.0292.106.04224a1.7139,1.7139,0,0,1-.16915-.21814c-.19048-.29368.20291-.26849.356-.141.2695.22636.1281.29422.10254.45881a3.28994,3.28994,0,0,0,.53627.11422.298.298,0,0,0,.3516-.207c.07335-.2153-.30963-.08595-.38444-.56407a1.00543,1.00543,0,0,1,.36875-1.05984,3.06751,3.06751,0,0,1,.42878-.2652c.08412-.04516.2226-.10712.27571-.13383.06149-.03184.10639-.05192.15528-.079a.69361.69361,0,0,0,.162-.11678c.04342-.04789.05235-.08795.01459-.10317a.17957.17957,0,0,0-.09944.00073,1.94671,1.94671,0,0,1-.42187.01112c-.14232-.0063-.30818-.02-.48388-.03593-.07481-.00968-.15583-.02081-.246-.0323-.10474-.01332-.14232-.01551-.28409-.03969a4.01146,4.01146,0,0,1-.61-.13712c-.397-.12089-.83111-.2652-1.20954-.3464L64.41047,21.3a2.41905,2.41905,0,0,0-.92126.03074,5.21808,5.21808,0,0,1-.8926.0968,1.50205,1.50205,0,0,1-.46327-.08384.91952.91952,0,0,1-.3152-.14953s-.20928-.13219.43754-.21987a7.75076,7.75076,0,0,1,1.30669-.076,4.06249,4.06249,0,0,1,1.10956.20618c.15235.05155.19615.07007.29706.10719.09194.03449.10983.03813.16238.05493.046.0114.07279.023.11494.03111.09946-.43581.39083-1.53195.55178-2.14358a17.44131,17.44131,0,0,0,.42112-2.20669,14.88847,14.88847,0,0,0,2.56524.52885,10.73093,10.73093,0,0,0,3.26131.059c.252-.09114.7866-.37561.83-.64419.0719-.4536-.63917-1.538-1.24511-2.26637A3.937,3.937,0,0,1,70.98,13.56744c-.01241-.04606-.02152-.08529-.02754-.11494-.01515-.23665-.008-.41355-.29887-.44248a.4132.4132,0,0,0-.1374.02154c-.05146.00957-.08447-.00848-.11459-.08129-.0051-.01405-.01076-.02965-.016-.04817l-.00912-.02481a.13224.13224,0,0,0-.10329-.10538c-.02737-.01067-.05637-.01824-.08593-.02819a.25108.25108,0,0,1-.12371-.1746c-.02556-.07718-.06642-.20446-.06788-.20665a1.24266,1.24266,0,0,0-.1706-.24951,2.3606,2.3606,0,0,1-.17791-.34267,4.85492,4.85492,0,0,1-.2277-.72438.31316.31316,0,0,0-.19359-.178.85007.85007,0,0,0-.11186-.013c-.14542-.01624-.26128-.05639-.21-.06341a1.742,1.742,0,0,1,.25507-.00921c-.02336-.04927-.05491-.11715-.08228-.1914a.27.27,0,0,0-.24723-.18693c-.09178-.00374-.58115-.02855-.64337.07718l-.00858.01779a.32131.32131,0,0,1,.09908-.02336c.09652-.00592.1383.06715.15893.17991a.4353.4353,0,0,1-.01205.20573s.14433-.0375.17481.07608a.53321.53321,0,0,1-.01205.25327s.06769-.06816.15035.02672a.17556.17556,0,0,1,.03393.06085.24923.24923,0,0,1-.00912.16494c-.01114.0282-.02408.06086-.03776.09086-.01278.02892-.0438.04426-.05566.06524-.01642.02818-.00073.0602-.01058.09871a.49025.49025,0,0,1-.0874.19405.12038.12038,0,0,1-.08064.03593.097.097,0,0,1-.09434-.06741s-.115.168-.21.18419c-.0945.0167-.13155-.06231-.1445-.12233-.00985-.04744-.04544-.38984-.08684-.59894a.44356.44356,0,0,1,.00073-.13757c0-.003.00583-.03522.00912-.05119,0-.003.01532-.08092.02427-.11833.02444-.11539.03813-.24.01952-.23738-.00256.00073-.00547.00293-.00987.00968a1.18184,1.18184,0,0,0-.15564.42239c-.00146.05794,0,.08275,0,.12984a.74934.74934,0,0,1-.0093.20125c-.00639.00721-.01659.00127-.027-.00693a1.19821,1.19821,0,0,0-.12042-.17206c-.09835-.11168-.2914-.20655-.4257-.1165-.0883.0601.05164.15837.131.29549a5.06712,5.06712,0,0,1,.21476.47549.86106.86106,0,0,0,.21842.35872,3.23358,3.23358,0,0,0,.61307.38829,2.55863,2.55863,0,0,1,.5514.34312.61482.61482,0,0,1,.09013.1c.03285.04716.05566.09159.07573.1164a.13482.13482,0,0,0,.087.042,1.2944,1.2944,0,0,0,.28738.013.22843.22843,0,0,1,.10766.01342c.07408.03158.03868.11022.02171.14133a.31453.31453,0,0,1-.119.10089.614.614,0,0,1-.08632.04114.4588.4588,0,0,1-.1164.02857,1.06261,1.06261,0,0,1-.18611.00191l-.03485-.00338a.496.496,0,0,1-.12589-.03038.42465.42465,0,0,1-.06825-.03675.76343.76343,0,0,1-.20016-.17955.109.109,0,0,0-.012-.01441c-.02737-.03787-.04908-.0613-.10035-.03978-.05822.02453-.17061.08348-.15108.14579a.16484.16484,0,0,0,.01441.03412.93857.93857,0,0,1,.06351.50843c-.01734.18146.04451.47439.21147.20143.112-.18583.49429.26666.33153.37533-.16166.10792-.36328.00183-.25381.18282.10839.18137.24358.12051.49612.31894l.0082.00813c.01642.00557.03431.00968.05129.01441a.7802.7802,0,0,0,.10491.02081c.01332.00155.02864.00228.04342.00336a.83524.83524,0,0,0,.14159-.00073.53446.53446,0,0,1,.2746.01743c.03559.0238.02646.06121-.0363.10947a.69734.69734,0,0,1-.18337.09643,3.57235,3.57235,0,0,0,.14633.35709c.0352.06412.09194.15754.12754.20919a3.31525,3.31525,0,0,0,.8988.7636c.05639.04006,0,.09152-.1602.04114a2.51719,2.51719,0,0,1-.92436-.53407c-.01969-.01887-.08083-.08412-.09742-.10454a1.08008,1.08008,0,0,1-.16569-.28336c-.01805-.049-.05163-.12126-.06751-.17025a.31739.31739,0,0,0-.07718-.13055c-.05637-.037-.17643-.03367-.20472.24222a2.48312,2.48312,0,0,0,.00585.27744.56989.56989,0,0,1-.0022.08191c-.00364.10566-.06915.12462-.12954.06123a.804.804,0,0,1-.23921-.50333c-.00183-.01861-.00583-.075-.00475-.09159a.67568.67568,0,0,1,.10949-.42093.92259.92259,0,0,1-.33428-.29925.962.962,0,0,0-.81633-.38573c-.51381.03486-.743-.4328-.96031-.63278a1.51231,1.51231,0,0,0-.98785-.31995c-.33592.01332-.606.05785-.658.04636,0,0-.06.08456.12133.42011.09708.17808.4.23675.37114.645-.02483.38418-.21421.731.02554,1.03065.01459.01769.02719.037.04159.05519a1.19614,1.19614,0,0,1,.21842.8312,11.506,11.506,0,0,1-1.02471,3.617c-.15016.32669-.16276-.02519-.16276-.02519a11.61054,11.61054,0,0,0-.58369-3.3001,13.24253,13.24253,0,0,0-1.97461-3.75781,11.19106,11.19106,0,0,0-1.578-1.87006c-.05747.06313.01633.38054-.19624.6972a1.744,1.744,0,0,1-.38334.33572c-.07272.06451.23118.01069.47321.10867.30735.12462.59227.31229.22808.24814-.3527-.0624-1.00171-.05719-.95427.00439.04826.06084.55815.20472.93475.46325.24168.16687.57885.47514.03769.34823a9.21547,9.21547,0,0,0-1.62584-.3109c-.59584-.03585-1.21346.24-1.071.30233.00693.00338.01769.007.03111.01186l-.00146.00036h.00437a1.72143,1.72143,0,0,1,.4266.19624,1.785,1.785,0,0,1,.45688.37751c-.0082.01078-.04041.01405-.09351.00411a1.20139,1.20139,0,0,1-.24039-.07864,1.75829,1.75829,0,0,0-.67274-.25252h-.003c-.1289.007-.08785.05418.00265.11229.06751.04307.165.09342.23774.13759a2.10305,2.10305,0,0,1,.73524.69654,4.33128,4.33128,0,0,1,.38336.88047,5.0665,5.0665,0,0,1,.13675.50058c.04323.204.01687.20992-.03148.14725-.034-.0448-.08092-.12535-.12152-.19168-.03713-.06231-.1144-.16577-.17223-.26074-.08968-.14734-.19269-.29631-.30035-.45881-.175-.26776-.42129-.64636-.56189-.61745-.14168.02857-.02563.43428.09323.678a5.96215,5.96215,0,0,0,.83942.92555c.052.05226.10108.10646.14779.16138.03257.03741.06295.0749.09333.11386a10.9322,10.9322,0,0,1,.89781,1.328,8.8943,8.8943,0,0,1,.6139,1.28728.83923.83923,0,0,0,.411.43581c.41682.21511.35515.2766.45387.3808a.64491.64491,0,0,0,.36273.18774c.04735.01332.21064.06971.21393.07007a.52791.52791,0,0,1,.3484.23776c.03686.05484.03249.11-.03156.11349-.07573.00366-.21184-.02418-.4203-.03868a3.05043,3.05043,0,0,0-.916.07052c-.10984.02108-.57338.1198-.671.138a1.42909,1.42909,0,0,1-.89478-.138,2.31264,2.31264,0,0,1-.59757-.48917l-.007-.00667c-.13858-.15427-.2433-.41983.158-.16622a2.0324,2.0324,0,0,0,.94635.30754c.04671.00292.0958.00329.14706.00329.18228-.0011.51208-.0085.75531-.01917a1.7946,1.7946,0,0,0,.38945-.01715c.00914-.019-.01368-.04643-.0602-.07864a.97525.97525,0,0,0-.43409-.16767c-.43252-.08075-1.20105-.08567-1.57109-.68761-.15982-.25874.18994-.061.53552-.00329.23949.03969-.09606-.34859-.2903-.56663-.18064-.20207-.43818-.392-1.10124-.97909a10.80709,10.80709,0,0,1-1.344-1.49985A2.3109,2.3109,0,0,1,56.81,14.943a2.301,2.301,0,0,1,.18647-.93839c.04124-.08275.10876-.23583.02418-.2081a.827.827,0,0,0-.34138.319,1.27072,1.27072,0,0,0-.18456.47058,5.69769,5.69769,0,0,0,.24257,2.18042c.00439.0167.15564.52175.42359,1.189a11.25734,11.25734,0,0,0,.68369,1.3691c.20564.3476.50669.82081.74626,1.16748.19662.28263.53627.73359.53992.73651a3.609,3.609,0,0,0,.38162.39358,3.14708,3.14708,0,0,0,.46638.3008,10.24394,10.24394,0,0,0,1.0331.395c.40588.145,1.40641.533,1.58914.60559.52842.21212-.71753-.05383-1.63578-.25153a4.79367,4.79367,0,0,1-1.24109-.36255,2.585,2.585,0,0,1-.57441-.3954s-.01934-.02262-.02554-.02819c-.01487-.01751-.03029.00667-.03795.05228-.00658.03823-.01368.08339-.04471.25-.01523.08348-.03466.17124-.05162.247a4.49084,4.49084,0,0,1-.95838,1.73867c.03348-.23665-.07928-.35717-.3433-.17991a3.52127,3.52127,0,0,1-2.25415.84736c-.57932-.02892-.89826-.35707-.93839-.25143a.37158.37158,0,0,0-.00658.13137,1.13247,1.13247,0,0,0,.64044.72711,2.16327,2.16327,0,0,0,.91705.17371,9.6447,9.6447,0,0,0-2.74569.86889A5.98467,5.98467,0,0,0,49.95628,31.788a2.40548,2.40548,0,0,0,.59638,1.60695M63.46332,18.34192a.28339.28339,0,1,1,.158-.33106.26079.26079,0,0,1-.158.33106m.635,1.21238a.24.24,0,1,1-.29887-.20956.26078.26078,0,0,1,.29887.20956M60.8635,14.71412a2.66387,2.66387,0,0,1,.85373-.40716c.175.00147-.27634.3538-.20334.474.04.0645.52831.41271,1.132,1.044a4.2699,4.2699,0,0,1,.77728,1.071.7864.7864,0,0,1,.11349.37953c-.023.05783-.22514-.31339-.67857-.797-.89424-.95054-2.02351-1.6812-1.99459-1.76423m7.41883-3.51577c.02735-.09751.05747-.19732.02735-.194,0,0-.04963-.00439-.08593.086a.54428.54428,0,0,0-.025.25153c.01022.03339.05747-.04551.08357-.14351"/><path class="cls-1" d="M65.17591,9.99118a.0598.0598,0,0,0-.02354-.01816.71062.71062,0,0,0-.27972-.049c-.02754.0011-.04835.00073-.0664,0a1.22006,1.22006,0,0,1-.51181-.072.47162.47162,0,0,1-.04708-.03038.11529.11529,0,0,1-.04963-.0801.35562.35562,0,0,0-.03193-.06908.16346.16346,0,0,0-.01934-.0218l-.00766-.006c-.04488-.03449-.08064-.06412-.10838-.089l-.00109-.0011V9.55126a.09249.09249,0,0,1,.00109-.03548.08838.08838,0,0,1,.01332-.02709l.01295-.02336a.04924.04924,0,0,0,.00475-.01633c.00439-.01633-.00693-.03458-.02463-.053a.46751.46751,0,0,0-.06532-.052c-.03832-.02554-.0832-.05007-.116-.06932a.63112.63112,0,0,0-.23191-.0749c-.08466-.00858-.16915.00447-.1914.05893-.01114.02747-.033.06751-.04215.09535a2.032,2.032,0,0,0-.05566.22615.95243.95243,0,0,0,.10364.6835.02588.02588,0,0,1,.00839.01706c-.00219.016-.03722.02382-.11549.02782-.10273.0063-.39321-.23428-.43827-.25726a.06407.06407,0,0,1-.019-.01715.84389.84389,0,0,1-.05491-.23475,1.24076,1.24076,0,0,0-.08522-.30818.64743.64743,0,0,0-.09361-.148.24458.24458,0,0,0-.03776-.034.43791.43791,0,0,1-.07845-.0613.03349.03349,0,0,1-.00676-.027l.00547-.01306a.13966.13966,0,0,1,.13557-.03229.17252.17252,0,0,1,.08449.05383l.01332.01513.00637.009-.00127-.00493a.64889.64889,0,0,0-.10145-.27963l-.00291-.00374-.00674-.00813a.18915.18915,0,0,0-.11259-.066.41891.41891,0,0,0-.44976.30636.39243.39243,0,0,0-.02491.15973,1.00589,1.00589,0,0,0,.11158.36456,1.37728,1.37728,0,0,1,.08346.34276c.0094.106.04946.13456.04981.13529a.2851.2851,0,0,0,.22507.06267l.00366-.00108c.00984.00665.00874.02408,0,.04789-.02373.07117-.11487.18949-.18867.17171a.11192.11192,0,0,1-.04389-.04006.89469.89469,0,0,0-.31767-.22105.559.559,0,0,0-.53186.0074c-.02819.02563-.02674.00181-.0062.12982a.85228.85228,0,0,1-.04344.40862.43286.43286,0,0,0-.01405.28564,1.52306,1.52306,0,0,0,.42194.604,4.02907,4.02907,0,0,0,.72859.61609c.14888.06687.24685-.30644.26018-.34.00439-.01332-.00073-.02009-.01405-.02455-.04981-.01513-.2027.02007-.28116.00712-.04563-.0082-.04908-.04972-.01633-.0853l.00776-.00712a.9894.9894,0,0,1,.29194-.178.06847.06847,0,0,1,.01732.00848c.02281.01379.11915.09389.13412.10839.06661.0656.187.18867.32605.31731l.01971.01861a2.08088,2.08088,0,0,0,.49283.35616l.00912.00585c.18611.09351.55159.23619.75011.10454a.39242.39242,0,0,0,.133-.2329,1.98417,1.98417,0,0,1,.14488-.22918c.02207-.04333-.16478.0582-.23045.18729-.02007.04079-.06588.13019-.1613.12873a.31393.31393,0,0,1-.14232-.06048.25426.25426,0,0,0,.03174-.07408.289.289,0,0,0,.0082-.105.77065.77065,0,0,1,.08012-.36092c.03557-.04067.06786-.07561.06786-.07561a.30572.30572,0,0,0,.04253-.13129.30454.30454,0,0,1,.07171-.17361.87939.87939,0,0,1,.07169-.06641.29986.29986,0,0,0,.06734-.12344c.02535-.096.05418-.19469.11459-.20545a.6801.6801,0,0,1,.17516.003.15468.15468,0,0,0,.15254-.105,1.59132,1.59132,0,0,0,.03595-.41391,1.3342,1.3342,0,0,0-.02573-.53362m-1.42412.94123c-.092.06076-.08832.155-.15655.13757l-.017-.01076c-.0343-.02408-.05674-.19241.03029-.241a.44147.44147,0,0,1,.31384-.01086l.006.00383c.05785.03522-.09032.06412-.17662.12124"/><path class="cls-1" d="M67.7957,22.53756a3.43135,3.43135,0,0,0-.48207.08275c-.13228.046-.25345.1301-.20709.20883.04652.07791.17808.067.437-.05237.25818-.11943.37294-.23073.25216-.23921"/><path class="cls-1" d="M65.50178,16.7006c.01532-.23082-.35508-.15665-.28938-.00977a.57.57,0,0,1,.04415.28557.30947.30947,0,0,0,.24523-.2758"/><path class="cls-1" d="M64.95859,15.81775c.06149.16732.08247.23191.08247.23191a.19156.19156,0,0,0,.25143-.17954c.03776-.24588-.39539-.21915-.3339-.05237"/><path class="cls-1" d="M62.0184,7.98994s-.06231.12462-.359.10609c-.29513-.02007-.46282,0-.5441.32561a1.21145,1.21145,0,0,0,.07726.74992c.06149.1821.07993.36466-.03393.44128-.11494.07681-.21649.0208-.20773.12535a.18432.18432,0,0,0,.15966.13512.63661.63661,0,0,0,.31008-.05766.4859.4859,0,0,1,.34368.04279c.14589.072.056-.12883-.15545-.36567a1.16063,1.16063,0,0,1-.20455-.97471c.10958-.35524.44713-.26328.57485-.34713.12016-.07709.09671-.23957.03924-.181"/><path class="cls-1" d="M60.94141,7.60092a.72687.72687,0,0,0,.26447.14234,1.65943,1.65943,0,0,0,.3444.08238c.28263.03522.38572-.0011.701.02336a2.645,2.645,0,0,1,.67575.135,4.6755,4.6755,0,0,1,1.53834,1.04917c.19615.21476.62676.53041.66015.43024a3.95454,3.95454,0,0,0-.25928-.29969c-.158-.20846-.31128-.47613-.4421-.63014a2.33171,2.33171,0,0,0-.4598-.42277c-.056-.04441-.17279-.12862-.1801-.13684-.09251-.106.14269-.0426.248.00456a4.15029,4.15029,0,0,1,.77364.45042,2.45232,2.45232,0,0,1,.45178.42065c.20472.26485.32058.5245.50451.72539a1.19475,1.19475,0,0,0,.399.298,2.0328,2.0328,0,0,0,1.16794.18867c.29157-.08231.38663-.17389.36948-.26184a.93634.93634,0,0,0,.07974.082c.04051.03668.085.07636.12718.11457.01532.0074.03247.01588.05108.02408.06586.02747.1332.00037.14615.02857a.11052.11052,0,0,1-.03193.09861c.00329.01076.01332.03485.03193.076.0219.052.22371.07161.22371.07161s.24577.02143.23482-.01369c0,0,.02208-.0468-.18356-.3683a6.57606,6.57606,0,0,0-.64866-.5077c-.10254-.0738-.1914.007-.17406.11313a.45706.45706,0,0,0,.06788.175,1.14473,1.14473,0,0,0-.44922-.17827,1.16009,1.16009,0,0,1-.70267-.32277c-.04269-.03485-.03412-.06523-.03412-.06523a7.44144,7.44144,0,0,1,.79572-1.12671c.33755-.33856.67512-.57.74335-.78623a2.958,2.958,0,0,0-1.66-2.18444,4.02666,4.02666,0,0,0-2.67233-.65112c-.3516.09488-.4058.27133-.41839.47459a7.38286,7.38286,0,0,1-.12169,1.01776,2.94169,2.94169,0,0,0-.12006.58663.37891.37891,0,0,0,.12006.21584,1.85913,1.85913,0,0,0,.2945.27709,3.03714,3.03714,0,0,1,.56746.56215c.13137.19405-.0823.13028-.21294.036a4.76187,4.76187,0,0,0-.90994-.49948c-.135-.05275-.31713-.11651-.44156-.15291a1.72763,1.72763,0,0,0-1.50039.09352c-.23884.18611-.12827.45432.04079.61078"/><path class="cls-1" d="M48.33491,51.37735v-.61454l-.34366.51748-.34476-.51748v.61454h-.1468V50.503h.1468l.34476.53625.34366-.53625h.14022v.87436Zm-1.32257-.75813v.75813h-.1394v-.75813h-.33445V50.503h.79215v.11623Z"/></svg>