<svg id="Layer_1" data-name="Layer 1" xmlns="http://www.w3.org/2000/svg" viewBox="0 0 125 83"><defs><style>.cls-1{fill:#fff;}</style></defs><title>Smirnoff-logo</title><path class="cls-1" d="M58.80979,38.48188h-.03264c-.4625.00944-1.27972.03125-1.74347.04472v4.48417s1.23083-1.25194,1.74208-1.76875a1.15171,1.15171,0,0,0,.39-.93583V38.79924C59.16576,38.57952,59.11759,38.48188,58.80979,38.48188Z"/><path class="cls-1" d="M77.06326,46.571c.46931.03667,1.294.10181,1.76056.14375h.0271a.217.217,0,0,0,.14387-.05819.18239.18239,0,0,0,.06236-.13569V39.373a.26881.26881,0,0,0-.24139-.24417c-.46667-.04069-1.28861-.10847-1.7579-.14514H77.039a.20572.20572,0,0,0-.21165.19667v7.15208A.263.263,0,0,0,77.06326,46.571Z"/><path class="cls-1" d="M20.57938,37.40493V56.73007a186.71157,186.71157,0,0,1,83.84123,0V37.40493A186.6758,186.6758,0,0,0,20.57938,37.40493ZM33.81716,48.69646a1.94016,1.94016,0,0,1-.40556,1.19764,1.52883,1.52883,0,0,1-.93514.586c-1.38889.22778-2.11042.35125-3.52514.61569a1.15085,1.15085,0,0,1-.21361.02042,1.12936,1.12936,0,0,1-.76972-.30389,1.46025,1.46025,0,0,1-.42514-1.09444V48.154h0c.04875-.00958,2.07653-.38792,2.11653-.39611v.86125c0,.27944.04069.32958.17083.32958.03877,0,1.54694-.26444,1.57-.26986.17764-.04472.259-.10167.259-.43264V46.10993c0-.28347-.18238-.28347-.24349-.28347h-.00611l-.08139.00542c-.04875.00944-2.38167.42458-2.38167.42458a1.32184,1.32184,0,0,1-.24819.02431,1.10559,1.10559,0,0,1-.78125-.30111,1.28874,1.28874,0,0,1-.37431-.93306V41.36007A1.81886,1.81886,0,0,1,29.036,39.552c1.06819-.19667,2.15458-.38514,3.24042-.56694a1.843,1.843,0,0,1,.24-.019,1.26883,1.26883,0,0,1,.86875.30653,1.39578,1.39578,0,0,1,.43069,1.0675v1.58556q-1.07437.169-2.14583.35V41.2691a.17778.17778,0,0,0-.18708-.17625.34366.34366,0,0,0-.03528.004c-.40083.06917-1.15431.20208-1.55306.27264a.2947.2947,0,0,0-.23528.26986v2.11736c0,.24681.06306.29292.19056.29292a.62.62,0,0,0,.08069-.00819s1.72389-.29153,2.46847-.415a1.60359,1.60359,0,0,1,.17778-.01486,1.238,1.238,0,0,1,.78861.26042,1.32513,1.32513,0,0,1,.45167,1.09181Zm13.37347-.03528c-.66458.05694-1.32986.11528-1.99514.179l-.11319.01083-1.18347-6.89958-1.184,7.14111-.09294.00944q-.99687.10792-1.99111.22653l-.116.01347L39.332,42.47493l-1.18,7.16819-.09083.011q-.99292.13417-1.98569.27667l-.17083.02444.03319-.16958q1.13729-5.81062,2.27722-11.60889l.01833-.08681.08611-.01222q.996-.13229,1.99113-.251l.116-.01347,1.18278,6.80611L42.7948,37.542l.09153-.00958q.99792-.10771,1.99516-.20208l.11054-.01361L47.329,48.65035Zm4.60208-.32819-.11528.00681c-.65653.03792-1.31361.08264-1.96944.12875l-.13153.00819V36.937l.11389-.00819c.65653-.04611,1.31569-.08944,1.97292-.12736l.12944-.00819Zm10.24988-.32556q-1.10066.006-2.20071.02167l-.08333.00278-.03194-.07875q-.72333-1.81875-1.4479-3.63361-.63274.57792-1.26544,1.15972v2.61639l-.11861.004q-.98792.03062-1.97222.07194l-.1275.00542V36.65757l.11667-.00542c1.71778-.07181,3.08292-.11667,4.75667-.141a1.546,1.546,0,0,1,1.66361,1.56514v2.44139a1.59484,1.59484,0,0,1-.53444,1.38625l-.8925.86806q1.12316,2.52479,2.24958,5.06583l.07528.16958Zm36.33955,3.02194a.95889.95889,0,1,1-.96028-.96028A.96077.96077,0,0,1,98.38214,51.02938ZM92.01826,38.77077l.14111.02167c1.7225.274,3.46944.57917,5.20014.90333l.09764.019v1.98569l-.14373-.02847c-.99822-.18583-2.03988-.37431-3.10058-.5575v2.70722q1.18812.20354,2.37625.42181l.10042.01764V46.251l-.14375-.02722c-.77861-.14375-1.55444-.28069-2.33292-.415v4.86653l-.14375-.02444q-.9725-.16667-1.94778-.32l-.10306-.019Zm-7.91278-1.08236.13556.01625c1.73611.20083,3.49389.43,5.22194.67819l.10569.01625v1.98306l-.141-.019c-1.039-.15056-2.08875-.29292-3.12236-.42319v2.70458q1.19229.1525,2.38724.31875l.10581.01486V44.9666l-.14111-.019q-1.176-.16687-2.35194-.31472v4.8625l-.13833-.01486q-.97646-.12417-1.95583-.23736l-.10569-.01222Zm-9.54319.77042a1.40122,1.40122,0,0,1,1.4675-1.49472h.03528c1.21792.08958,2.43319.18722,3.62417.29569a1.61124,1.61124,0,0,1,1.49458,1.66292v8.38764a1.48341,1.48341,0,0,1-.39333,1.06056,1.41243,1.41243,0,0,1-1.03889.40694,1.57458,1.57458,0,0,1-.179-.00819c-1.39708-.12875-2.09958-.18708-3.47222-.28472a1.57728,1.57728,0,0,1-1.53806-1.63847Zm-9.88236-1.98028.12208.00278c.74058.00806,1.48389.019,2.22167.03653h.08419l.02984.08014q1.25732,3.41375,2.51738,6.8468V36.5966l.1247.004q.93187.0325,1.86083.07875l.11667.004V48.22452l-.1275-.00681c-.754-.03667-1.511-.06653-2.265-.09361l-.08141-.00278-.02986-.07722q-1.23708-3.416-2.46861-6.81555v6.82236l-.12472-.00139q-.92771-.02042-1.86083-.03125h-.11944Z"/><path class="cls-1" d="M96.657,51.02938a.76632.76632,0,1,0,.76486-.76639A.76774.76774,0,0,0,96.657,51.02938Zm1.15014-.25361a.30117.30117,0,0,1-.19806.30917l.25778.40972h-.28222l-.22514-.36625h-.08944v.36625h-.25778V50.49229h.43139C97.73659,50.49229,97.80714,50.65771,97.80714,50.77577Z"/><path class="cls-1" d="M97.43548,50.94118a.12662.12662,0,0,0,.06514-.02708.21082.21082,0,0,0,.03528-.04347.13261.13261,0,0,0,.01086-.06917.15929.15929,0,0,0-.01363-.06639.08772.08772,0,0,0-.04875-.04208.27643.27643,0,0,0-.05428-.01222.3556.3556,0,0,0-.07058-.004h-.08944V50.948h.076A.5781.5781,0,0,0,97.43548,50.94118Z"/></svg>